<?xml version="1.0" standalone="no"?>
<!DOCTYPE svg PUBLIC "-//W3C//DTD SVG 1.1//EN" "http://www.w3.org/Graphics/SVG/1.1/DTD/svg11.dtd" >
<svg xmlns="http://www.w3.org/2000/svg">
<metadata></metadata>
<defs>
<font id="open_baskerville_0.0.75normal" horiz-adv-x="1474" >
<font-face units-per-em="2048" ascent="1638" descent="-410" />
<missing-glyph horiz-adv-x="561" />
<glyph horiz-adv-x="2048" />
<glyph horiz-adv-x="2048" />
<glyph unicode="&#xd;" horiz-adv-x="2048" />
<glyph unicode=" "  horiz-adv-x="561" />
<glyph unicode="&#x09;" horiz-adv-x="561" />
<glyph unicode="&#xa0;" horiz-adv-x="561" />
<glyph unicode="!" horiz-adv-x="479" d="M133 78q0 -44 31.5 -75.5t75.5 -31.5t75 31.5t31 75.5t-31 76t-75 32t-75.5 -32t-31.5 -76zM135 1251l94 -1003h21l94 1003q5 58 -19 95.5t-85 37.5t-85.5 -38.5t-19.5 -94.5z" />
<glyph unicode="&#x22;" horiz-adv-x="589" d="M59 1200q0 -52 22 -155t25 -156q4 -29 25 -29q20 0 23 29q4 49 28.5 153t24.5 158q0 21 -23 42.5t-51 21.5q-24 0 -49 -21.5t-25 -42.5zM352 1200q0 -52 21 -155.5t24 -155.5q2 -12 9 -20.5t16 -8.5q11 0 15.5 6.5t6.5 22.5q4 49 29 153t25 158q0 21 -23 42.5t-51 21.5 q-24 0 -48 -21t-24 -43z" />
<glyph unicode="#" horiz-adv-x="1150" d="M63 385l986 14l26 82l-993 -16zM121 811l958 8l29 86l-963 -12zM236 25l96 4l194 1216l-98 -4zM653 23l99 6l196 1206l-104 -6z" />
<glyph unicode="$" horiz-adv-x="1044" d="M96 238q0 -72 66 -134.5t169 -97.5t212 -35q216 0 328 102t114 275q0 69 -24 129t-65 104t-94.5 82.5t-113 71t-118.5 64t-112.5 65.5t-95 71.5t-66 87.5t-24.5 107q0 59 19 106t46.5 74t63 44.5t64 23.5t53.5 6q118 0 177 -41t59 -102q0 -145 82 -145q38 0 54.5 20 t16.5 68q0 95 -115.5 163t-279.5 68q-100 0 -186 -40.5t-140.5 -122t-54.5 -187.5q0 -71 22.5 -129.5t61 -100.5t88 -78t104 -66t109 -59t104 -62t88 -71t61 -90.5t22.5 -115.5q0 -134 -73 -211.5t-181 -77.5q-120 0 -203.5 62t-83.5 124q0 66 -14.5 101t-57.5 35 q-36 0 -59 -23t-23 -65zM500 -236h57v932h-57v-932zM504 764h57v786h-57v-786z" />
<glyph unicode="%" horiz-adv-x="1228" d="M72 1036q0 -134 82 -214.5t198 -80.5q113 0 197 81t84 214q0 132 -84 213.5t-197 81.5q-115 0 -197.5 -81t-82.5 -214zM133 -10l23 -15l927 1358l-24 13zM215 1036q0 262 137 262q73 0 105 -63t32 -199q0 -135 -32 -198.5t-105 -63.5q-137 0 -137 262zM596 285 q0 -134 82.5 -214.5t198.5 -80.5q113 0 196.5 80.5t83.5 214.5q0 132 -83.5 213.5t-196.5 81.5q-115 0 -198 -81t-83 -214zM739 285q0 262 138 262q73 0 105 -63t32 -199q0 -135 -32 -198.5t-105 -63.5q-138 0 -138 262z" />
<glyph unicode="&#x26;" horiz-adv-x="1284" d="M61 342q0 -178 101.5 -274.5t275.5 -96.5q132 0 217 50.5t176 166.5q36 -41 65.5 -69.5t80.5 -67t114 -59.5t132 -21q116 0 165.5 47.5t49.5 120.5h-15q0 -37 -42 -74.5t-87 -37.5q-65 0 -149 64.5t-142 136t-81 118.5l151 305q38 75 83.5 114.5t123.5 39.5h16v26h-411 v-26h16q65 0 97 -26.5t32 -86.5q0 -63 -41 -147l-88 -174l-344 467q9 6 47 27.5t60.5 35.5t57.5 43.5t54.5 58t35 71.5t15.5 91q0 69 -29.5 120.5t-78 78t-99 39t-104.5 12.5q-46 0 -92.5 -16.5t-89 -48.5t-69.5 -88.5t-27 -128.5q0 -140 163 -353q-58 -24 -115 -63 t-109 -93.5t-84 -128.5t-32 -153zM223 414q0 106 53.5 200t139.5 146l399 -551q-62 -87 -141 -133.5t-150 -46.5q-134 0 -217.5 113t-83.5 272zM348 1219q0 80 50.5 123.5t117.5 43.5q89 0 139 -57t50 -137q0 -104 -58.5 -205t-107.5 -129q-5 6 -40 52t-46 61.5t-37.5 56.5 t-37 66t-20.5 59.5t-10 65.5z" />
<glyph unicode="'" horiz-adv-x="337" d="M80 1335q0 -60 23.5 -175t27.5 -173q0 -13 8 -22t19 -9q13 0 17.5 6.5t6.5 24.5q5 57 32.5 172.5t27.5 175.5q0 23 -25.5 45.5t-56.5 22.5q-25 0 -52.5 -23t-27.5 -45z" />
<glyph unicode="(" horiz-adv-x="665" d="M0 496q0 -105 34.5 -213t89 -196t120.5 -166t129 -131t113.5 -83t76.5 -29v64q-38 26 -85 70.5t-103.5 117.5t-102 155.5t-76 192t-30.5 218.5q0 108 13.5 206t36.5 173.5t53 141.5t62.5 113.5t65.5 86.5t63 64t53 42t37 24l13 7v67q-10 0 -43.5 -20t-85 -61.5 t-109.5 -97.5t-116 -136t-104.5 -169.5t-75.5 -205t-29 -235.5z" />
<glyph unicode=")" horiz-adv-x="665" d="M0 -258q38 26 85 70.5t103.5 117.5t102 155.5t76 192t30.5 218.5q0 137 -22 258.5t-57 206t-77.5 155t-84.5 113t-77 72.5t-57 41l-22 12v67q10 0 43.5 -20t85 -61.5t109.5 -97.5t116 -136t104.5 -169.5t75.5 -205t29 -235.5q0 -105 -34.5 -213t-89 -196t-120.5 -166 t-129 -131t-113.5 -83t-76.5 -29v64z" />
<glyph unicode="*" horiz-adv-x="542" d="M12 1333q0 -34 29 -49.5t70.5 -14.5t88 0.5t81.5 -3.5q-21 -20 -75 -50t-90 -58t-36 -60q0 -28 19 -48t40 -20q38 0 63.5 26.5t36.5 60.5t27.5 72.5t36.5 55.5q18 -17 32.5 -55.5t24 -72.5t33.5 -60.5t60 -26.5q28 0 39.5 15t11.5 49q0 33 -19.5 58.5t-44 39.5t-61 35 t-57.5 39q34 3 79 3t85.5 -1t68 14.5t27.5 50.5q0 62 -58 62q-35 0 -66 -20t-65 -45t-71 -32q0 34 19 97t19 112q0 24 -16.5 40t-46.5 16q-61 0 -61 -56q0 -47 22.5 -111t22.5 -98q-37 8 -97 50.5t-108 42.5q-64 0 -64 -58z" />
<glyph unicode="+" horiz-adv-x="1032" d="M131 477l2 -67h342v-357h78v357h340v69h-340v357h-78v-357z" />
<glyph unicode="," horiz-adv-x="499" d="M94 -291l12 -26q102 34 180.5 134.5t78.5 202.5q0 80 -41.5 123t-102.5 43q-51 0 -84 -33.5t-33 -80.5q0 -45 32 -73t79 -28q53 0 72 29q0 -94 -59.5 -172t-133.5 -119z" />
<glyph unicode="-" horiz-adv-x="690" d="M98 395l447 -6l12 100l-459 -6v-88z" />
<glyph unicode="." horiz-adv-x="458" d="M123 78q0 -44 31 -75.5t75 -31.5t75.5 31.5t31.5 75.5t-31.5 76t-75.5 32t-75 -32t-31 -76z" />
<glyph unicode="/" horiz-adv-x="608" d="M33 -82l100 -27l449 1481l-101 29z" />
<glyph unicode="0" horiz-adv-x="1032" d="M66 674q0 -133 28 -249.5t74 -198t104.5 -140.5t121 -87t122.5 -28t122.5 28t121.5 87t105 140.5t74 198t28 249.5q0 91 -22 193.5t-64 198t-96 173.5t-125 125t-144 47q-91 0 -176.5 -72t-144 -182t-94 -239t-35.5 -244zM221 674q0 192 36 352t104 257t155 97t155 -97 t104 -257t36 -352q0 -191 -36 -344t-104 -241.5t-155 -88.5t-155 88.5t-104 241.5t-36 344z" />
<glyph unicode="1" horiz-adv-x="649" d="M29 0h610v27q-121 0 -179.5 54.5t-58.5 190.5l2 1112h-30q-26 -32 -61.5 -54.5t-79 -34.5t-71.5 -17.5t-71.5 -9.5t-46.5 -4v-17q45 -6 104 -6q26 0 53 2t40 4l14 2v-977q0 -135 -51 -190t-174 -55v-27z" />
<glyph unicode="2" horiz-adv-x="1026" d="M61 0h799l84 356h-14q-2 -9 -7 -23.5t-24 -52t-43.5 -66t-68 -52t-95.5 -23.5h-463q2 1 64.5 50t126 99.5t146.5 122.5t139 128q112 112 174.5 250t62.5 235q0 32 -7 68t-22.5 82t-47.5 86.5t-76 75t-113.5 55t-155.5 20.5q-87 0 -157.5 -23t-115 -59.5t-74.5 -85 t-42 -95.5t-12 -95q0 -118 73.5 -193.5t159.5 -75.5q110 0 148 56q-38 0 -74 6.5t-75 25.5t-68 47.5t-47.5 76.5t-18.5 110q0 61 20 110.5t50 79t68.5 49.5t71.5 27.5t62 7.5q32 0 64.5 -6t74 -25.5t73 -51t53.5 -90t22 -134.5q0 -270 -352 -688q-57 -68 -148 -159.5 t-153 -148.5l-62 -57v-20z" />
<glyph unicode="3" horiz-adv-x="1009" d="M51 258q0 -54 18 -98.5t46 -73.5t66 -51t74.5 -33.5t76.5 -19t66 -9.5t48 -2q231 0 356.5 118t125.5 298q0 252 -310 354q131 31 206 116.5t75 207.5q0 37 -11.5 79.5t-40.5 91t-72 86.5t-114 63.5t-159 25.5q-154 0 -245 -75.5t-91 -168.5q0 -59 42.5 -109t119.5 -50 q65 0 84 22q-62 17 -96.5 62t-34.5 112q0 25 9 52t29 56.5t62 48.5t100 19q140 0 200 -83t60 -232q0 -82 -21 -144t-49 -93.5t-63 -51t-56 -24t-34 -4.5q-30 0 -62 14t-61 14q-40 0 -63 -18.5t-23 -52.5q0 -35 25 -52.5t53 -17.5q32 0 78.5 36t87.5 36q80 0 148.5 -94 t68.5 -240q0 -160 -87 -264.5t-237 -104.5q-132 0 -199 69.5t-67 184.5q0 127 105 199q-28 4 -41 4q-84 0 -138.5 -58.5t-54.5 -144.5z" />
<glyph unicode="4" horiz-adv-x="956" d="M0 332h553v-60q0 -72 -7 -115t-27.5 -74.5t-58 -43.5t-100.5 -12v-27h506v27q-51 0 -82.5 8t-51.5 22.5t-29 47t-12 68t-3 99.5v60h33q86 0 116.5 -30t30.5 -120v-24h27v403h-27v-24q0 -90 -38 -127t-125 -37h-17v1042h-35l-653 -1061v-22zM47 373l506 823v-823h-506z " />
<glyph unicode="5" horiz-adv-x="897" d="M-55 225q0 -60 30 -107t73 -74t97 -44t95 -23t73 -6q86 0 175 38t162 104t119 164.5t46 209.5t-55.5 198.5t-139.5 132t-178 44.5q-74 0 -126 -25.5t-74 -52.5l108 482q77 -27 225 -27q105 0 160.5 44t55.5 116q0 16 -3 22q-26 -43 -159 -43q-218 0 -275 31l-182 -764 l35 -14q34 105 86.5 151.5t128.5 46.5q61 0 106 -33t68.5 -87t34 -110.5t10.5 -115.5q0 -79 -23 -162.5t-64.5 -154.5t-107 -116.5t-141.5 -45.5q-95 0 -143.5 44.5t-48.5 107.5q0 111 -13.5 144.5t-70.5 33.5q-43 0 -63.5 -34t-20.5 -75z" />
<glyph unicode="6" horiz-adv-x="995" d="M66 588q0 -286 114.5 -451.5t315.5 -165.5q116 0 218 67t161 178t59 235q0 186 -129.5 312t-310.5 126q-77 0 -143 -33t-109 -92q0 52 14 127t43.5 159.5t69.5 156.5t98 119.5t123 47.5q57 0 90 -18.5t44 -44.5t19 -52t25.5 -44.5t52.5 -18.5q76 0 76 72q0 67 -66 107 t-176 40q-113 0 -220.5 -63t-188.5 -171.5t-130.5 -264t-49.5 -328.5zM231 451q0 85 13.5 154.5t43.5 127.5t84.5 90.5t129.5 32.5q131 0 198.5 -112t67.5 -293q0 -134 -27 -231.5t-90 -156.5t-157 -59q-82 0 -143 62t-90.5 162t-29.5 223z" />
<glyph unicode="7" horiz-adv-x="862" d="M41 1008h14q2 23 18.5 54.5t45 64.5t77 56t103.5 23h463l-555 -1020q-6 -11 -20.5 -36t-21.5 -38.5t-13.5 -35t-6.5 -41.5q0 -29 22.5 -46.5t55.5 -17.5q57 0 84 29t60 113l485 1216v21h-614q-42 0 -66 18t-28 36l-3 17h-14z" />
<glyph unicode="8" horiz-adv-x="1019" d="M82 322q0 -73 31.5 -134.5t79 -100t106 -66t111.5 -39t96 -11.5q55 0 111 11t115 39t104 70t73.5 110.5t28.5 154.5q0 57 -12 106.5t-36 88t-51.5 69.5t-68 58.5t-75.5 47t-83 42.5q256 119 256 340q0 64 -21.5 115.5t-57 86t-84.5 58t-101.5 33.5t-109.5 10 q-41 0 -84 -6.5t-99.5 -28.5t-99 -58.5t-72.5 -104t-30 -156.5q0 -69 22 -125t65.5 -98.5t87.5 -71.5t109 -62q-25 -9 -47.5 -18t-55 -27t-59.5 -38t-56 -50.5t-48.5 -65t-32 -81t-12.5 -98.5zM244 326q0 124 58 219t120 141q66 -29 110 -52t97 -59t84.5 -73.5t53 -90 t21.5 -112.5q0 -71 -20 -126t-49 -86t-66.5 -50.5t-68 -26t-58.5 -6.5q-30 0 -60.5 5t-72.5 25t-73 52.5t-53.5 94.5t-22.5 145zM246 1143q0 237 223 237q48 0 90 -13.5t80 -43.5t60 -88t22 -139q0 -75 -12.5 -130.5t-36.5 -90.5t-43.5 -53t-50.5 -38q-54 22 -89 38t-78 40 t-69 49.5t-50 59.5t-35 77t-11 95z" />
<glyph unicode="9" horiz-adv-x="1019" d="M76 932q0 -186 129.5 -312t310.5 -126q78 0 143.5 32.5t108.5 91.5q0 -52 -14 -126.5t-43.5 -158.5t-69.5 -155.5t-98 -118.5t-123 -47q-57 0 -90 18t-44.5 43.5t-19.5 51t-25.5 43.5t-52.5 18q-75 0 -75 -71q0 -67 65 -105.5t176 -38.5q113 0 220.5 63t189 170.5 t131 262.5t49.5 328q0 287 -115 453.5t-315 166.5q-116 0 -218 -68t-161 -179.5t-59 -235.5zM242 932q0 134 27 232t90 158t157 60q82 0 142.5 -62.5t90 -163.5t29.5 -224q0 -85 -13.5 -155t-43.5 -128t-84 -90.5t-129 -32.5q-131 0 -198.5 112.5t-67.5 293.5z" />
<glyph unicode=":" horiz-adv-x="456" d="M121 78q0 -44 31 -75.5t75 -31.5t75.5 31.5t31.5 75.5t-31.5 76t-75.5 32t-75 -32t-31 -76zM121 782q0 -44 31 -75t75 -31t75.5 31t31.5 75t-31.5 76.5t-75.5 32.5t-75 -32t-31 -77z" />
<glyph unicode=";" horiz-adv-x="456" d="M104 -272l13 -27q102 34 177 126.5t75 190.5q0 80 -41.5 123t-102.5 43q-51 0 -83.5 -33.5t-32.5 -80.5q0 -45 31.5 -73t78.5 -28q53 0 72 29q0 -96 -55.5 -163.5t-131.5 -106.5zM119 780q0 -44 31 -75t75 -31t75.5 31t31.5 75t-31.5 75.5t-75.5 31.5t-75 -31.5 t-31 -75.5z" />
<glyph unicode="&#x3c;" horiz-adv-x="1091" d="M74 549l960 -549v121l-839 477l829 436v113l-950 -494v-104z" />
<glyph unicode="=" horiz-adv-x="1036" d="M162 367l2 -66h700v68zM162 571l2 -65h700v67z" />
<glyph unicode="&#x3e;" horiz-adv-x="1091" d="M166 0v109l756 430l-748 391v102l856 -444v-94z" />
<glyph unicode="?" horiz-adv-x="968" d="M133 1245q0 -20 11 -33.5t26 -13.5q35 0 54.5 19t31.5 63q29 100 137 100q115 0 205 -120.5t90 -315.5q0 -97 -20 -173t-71.5 -127.5t-129.5 -51.5q-209 0 -209 262h-43v-584h64v346q38 -38 76.5 -51.5t113.5 -13.5q71 0 136 25.5t117 73.5t83 125t31 171q0 110 -42 203 t-106.5 150.5t-138 89.5t-141.5 32q-60 0 -125 -27t-107.5 -68.5t-42.5 -80.5zM137 78q0 -44 31.5 -75.5t75.5 -31.5t75 31.5t31 75.5t-31 76t-75 32t-75.5 -32t-31.5 -76z" />
<glyph unicode="@" horiz-adv-x="1622" d="M104 487q0 -140 40 -261t109.5 -208.5t162.5 -150.5t200.5 -94t221.5 -31q85 0 161 10.5t125.5 25.5t86 32.5t53 32t16.5 22.5q0 12 -12 12q-4 0 -18 -11t-43 -26.5t-72.5 -31t-121.5 -26.5t-175 -11q-121 0 -218.5 39t-163 106t-109.5 159.5t-63.5 196.5t-19.5 220 q0 142 47.5 261.5t128.5 200t189.5 125.5t230.5 45q78 0 155 -25t144.5 -74.5t119.5 -118.5t82 -164t30 -203q0 -235 -54.5 -375t-142.5 -137q-21 0 -35.5 6t-23.5 19.5t-14.5 25.5t-7.5 37.5t-2.5 41.5t-0.5 50v436q0 240 -326 240q-60 0 -123.5 -16.5t-113 -53 t-49.5 -84.5q0 -34 21 -57t54 -23q32 0 53.5 22t26.5 54q11 74 41.5 99.5t85.5 25.5q40 0 70 -8.5t48 -27.5t29 -38t16 -52t6 -56t1 -62q0 -62 -49 -108.5t-119 -55.5q-179 -23 -254 -74.5t-75 -172.5q0 -25 5.5 -50.5t22.5 -56t44 -53.5t75.5 -39t110.5 -16q77 0 120.5 12 t62 30t46.5 60q79 -98 199 -98q69 0 128 26t101 70.5t74.5 101t51.5 120.5t28.5 126t9.5 121q0 114 -51.5 223t-139.5 193.5t-215.5 136t-269.5 51.5q-170 0 -315 -59.5t-238.5 -155t-146 -213.5t-52.5 -238zM612 186q0 44 22 81.5t62.5 68t79 52.5t92.5 50t82 45v-186 q0 -53 -3.5 -91t-15.5 -77t-32.5 -63t-56 -39t-84.5 -15q-39 0 -67 10.5t-43 26.5t-23.5 41t-10.5 46t-2 50z" />
<glyph unicode="A" d="M10 0h453v27h-17q-84 0 -120.5 50.5t-36.5 127.5q0 69 33 149l81 185h478l24 -62q48 -123 71 -198t23 -127q0 -63 -39 -94t-126 -31h-25v-27h655v27h-24q-150 0 -236 221l-448 1138h-6l-488 -1079q-58 -125 -91 -174q-71 -106 -144 -106h-17v-27zM422 580l237 522 l205 -522h-442z" />
<glyph unicode="B" horiz-adv-x="1366" d="M72 0h766q140 0 199 11.5t122 49.5q68 42 120 134.5t52 177.5q0 84 -37 152t-90 107t-117.5 65.5t-113.5 36t-84 9.5q24 6 46.5 13t55 21t59 30.5t55.5 42.5t48.5 56.5t32 72.5t12.5 90q0 85 -37 148t-101.5 98.5t-140.5 52t-163 16.5h-672v-26h25q202 0 202 -234v-852 q0 -120 -61.5 -182.5t-155.5 -62.5h-22v-27zM518 272v449h160q80 0 137.5 -7.5t110 -28.5t84.5 -58t50.5 -97t18.5 -143q0 -176 -92 -268t-250 -92q-112 0 -165.5 52.5t-53.5 192.5zM518 745l2 615h119q340 0 340 -316q0 -156 -75.5 -227.5t-246.5 -71.5h-139z" />
<glyph unicode="C" horiz-adv-x="1368" d="M88 692q0 -341 195.5 -532t527.5 -191q67 0 135.5 13.5t139 46t124.5 80t88.5 121.5t34.5 165h-26q0 -156 -126.5 -263t-336.5 -107q-152 0 -270.5 87t-183 239t-64.5 341t63.5 349t175.5 254t246 94q90 0 160 -20.5t132 -69t108.5 -135t78.5 -212.5h19l-11 430h-22 q-4 -18 -19.5 -36.5t-35.5 -18.5q-19 0 -78.5 22t-155 44t-201.5 22q-146 0 -277.5 -60.5t-222.5 -160t-144.5 -231.5t-53.5 -271z" />
<glyph unicode="D" horiz-adv-x="1605" d="M72 0h737q159 0 283 40t202.5 105.5t129.5 157t71.5 187t20.5 202.5q0 96 -21 187t-76 185t-139 163t-221 113t-311 44h-662v-26h25q200 0 200 -234v-852q0 -120 -61.5 -182.5t-155.5 -62.5h-22v-27zM518 272v1074h170q126 0 229.5 -45t170 -115t112 -159t65 -173 t19.5 -162q0 -122 -39.5 -240t-110.5 -213t-180 -153.5t-237 -58.5q-36 0 -55.5 1.5t-46.5 8.5t-41.5 22.5t-29 42t-20.5 69t-6 101.5z" />
<glyph unicode="E" horiz-adv-x="1351" d="M72 0h1231l14 401h-23q-19 -187 -127.5 -281.5t-318.5 -94.5q-172 0 -252 60t-80 187v449h113q106 0 168.5 -66t62.5 -176v-22h23v542h-23v-22q0 -47 -10 -85.5t-33 -72t-66 -52.5t-104 -19h-131v610h244q195 0 295.5 -78t111.5 -219h29l-22 323h-1090v-26h25 q200 0 200 -234l2 -852q0 -120 -61.5 -182.5t-155.5 -62.5h-22v-27z" />
<glyph unicode="F" horiz-adv-x="1232" d="M72 0h684v27h-23q-93 0 -154 63t-61 182v449h113q106 0 168.5 -66t62.5 -176v-22h23v542h-23v-22q0 -47 -10 -85.5t-33 -72t-66 -52.5t-104 -19h-131v610h244q195 0 295.5 -78t111.5 -219h29l-22 323h-1088v-26h25q198 0 198 -234v-852q-1 -120 -62.5 -182.5 t-154.5 -62.5h-22v-27z" />
<glyph unicode="G" horiz-adv-x="1605" d="M88 692q0 -352 191 -537.5t542 -185.5q147 0 262 45.5t189 108.5l76 -14v233q0 49 15.5 80.5t45 44.5t53 16.5t58.5 3.5h24v43h-657v-43h24q29 0 50.5 -2t55.5 -12t56 -28t38.5 -54t16.5 -86q0 -26 -7 -59.5t-28 -78t-53 -80t-89 -60.5t-130 -25q-134 0 -246 92.5 t-175.5 251t-63.5 346.5q0 189 63.5 348t175 251.5t246.5 92.5q86 0 153.5 -21t127.5 -69.5t105.5 -133.5t76.5 -208h19l-11 430h-22q-4 -18 -20 -36.5t-36 -18.5q-18 0 -73 22t-141 44t-179 22q-156 0 -293 -55.5t-233 -151.5t-151.5 -230t-55.5 -286z" />
<glyph unicode="H" horiz-adv-x="1787" d="M72 0h684v27h-23q-94 0 -154.5 62.5t-60.5 182.5v420h752v-420q0 -120 -60.5 -182.5t-154.5 -62.5h-23v-27h684v27h-22q-94 0 -155.5 62.5t-61.5 182.5v852q0 234 200 234h25v26h-655v-26h24q199 0 199 -234v-391h-752v391q0 234 199 234h24v26h-655v-26h25 q200 0 200 -234v-852q0 -120 -61.5 -182.5t-155.5 -62.5h-22v-27z" />
<glyph unicode="I" horiz-adv-x="827" d="M72 0h686v27h-23q-94 0 -155.5 62.5t-61.5 182.5v852q0 234 201 234h24v26h-657v-26h25q200 0 200 -234v-852q0 -120 -61.5 -182.5t-155.5 -62.5h-22v-27z" />
<glyph unicode="J" horiz-adv-x="950" d="M-51 -178q0 -53 50.5 -92.5t116.5 -56.5t132 -17q199 0 302 82.5t103 222.5v1163q0 234 201 234h25v26h-656v-26h25q198 0 198 -234l3 -1163q0 -55 -6.5 -98.5t-23.5 -88.5t-55 -70.5t-94 -25.5q-21 0 -38.5 5t-30.5 16.5t-22 20.5t-17 27.5t-11.5 27.5t-10 30t-7.5 25 q-31 90 -94 90q-34 0 -62 -23.5t-28 -74.5z" />
<glyph unicode="K" horiz-adv-x="1529" d="M72 0h684v27h-23q-94 0 -155.5 62.5t-61.5 182.5v353l113 106l383 -502q53 -69 53 -110q0 -42 -37.5 -67t-95.5 -25h-23v-27h631v27h-22q-46 0 -100 40.5t-91 88.5l-549 714l203 191q308 297 391 297h14v26h-419v-26h16q44 0 77.5 -21t33.5 -61q0 -15 -6.5 -32.5 t-22 -38.5t-29.5 -38t-40 -42.5t-42.5 -41.5t-48.5 -45t-47 -43l-342 -321v450q0 234 201 234h24v26h-655v-26h25q200 0 200 -234v-852q0 -120 -61.5 -182.5t-155.5 -62.5h-22v-27z" />
<glyph unicode="L" horiz-adv-x="1327" d="M72 0h1231l14 401h-23q-19 -187 -127.5 -281.5t-318.5 -94.5q-172 0 -252 60t-80 187v852q0 234 201 234h24v26h-655v-26h25q198 0 198 -234l2 -852q0 -120 -61.5 -182.5t-155.5 -62.5h-22v-27z" />
<glyph unicode="M" horiz-adv-x="1933" d="M61 0h488v27h-23q-92 0 -146 61.5t-54 183.5v1026l540 -1302h13l538 1302v-1026q0 -120 -61.5 -182.5t-155.5 -62.5h-22v-27h684v27h-23q-94 0 -155.5 62.5t-61.5 182.5q-6 522 -6 637v26q0 172 3.5 236.5t18.5 98.5q19 42 60.5 65t97.5 23h25v26h-406l-454 -1103 l-463 1103h-422v-26h24q78 0 115 -15.5t53 -66.5q23 -76 23 -367l-6 -637q0 -122 -54.5 -183.5t-146.5 -61.5h-23v-27z" />
<glyph unicode="N" horiz-adv-x="1607" d="M61 0h488v27h-23q-92 0 -146 61.5t-54 183.5v953l989 -1237h24v921q0 178 19 275t58 135.5t110 38.5h16v26h-452v-26h16q71 0 108.5 -39.5t53.5 -134t16 -275.5v-571l-840 1046h-376v-26h24q197 0 197 -228v-858q0 -121 -56.5 -183t-148.5 -62h-23v-27z" />
<glyph unicode="O" horiz-adv-x="1642" d="M88 692q0 -144 58.5 -277.5t156.5 -231t234 -156t284 -58.5q197 0 366 98.5t268 265.5t99 359t-99 359t-268 265.5t-366 98.5q-148 0 -284 -58.5t-234 -156t-156.5 -231t-58.5 -277.5zM336 692q0 189 63.5 348t175 251.5t246.5 92.5q136 0 248.5 -92.5t177 -251.5 t64.5 -348q0 -188 -64.5 -346.5t-177.5 -251t-248 -92.5q-134 0 -246 92.5t-175.5 251t-63.5 346.5z" />
<glyph unicode="P" horiz-adv-x="1277" d="M72 0h684v27h-23q-93 0 -154 63t-61 182v406q132 -8 201 -8q83 0 146.5 7.5t127 30.5t105 61.5t67 103.5t25.5 153q-3 163 -97 260.5t-278 97.5h-727v-26h25q198 0 198 -234v-852q0 -120 -61.5 -182.5t-155.5 -62.5h-22v-27zM518 700v658q51 0 84.5 -1t77 -4.5t72.5 -9.5 t63 -18t56 -28.5t44 -41.5t34.5 -56.5t20 -74t7.5 -94.5q0 -61 -12 -110.5t-32 -83.5t-51 -59.5t-63.5 -40t-74.5 -23.5t-79 -12t-83 -3q-10 0 -32 1t-32 1z" />
<glyph unicode="Q" horiz-adv-x="1673" d="M88 692q0 -148 57 -281t157 -230.5t245 -154.5t313 -57q33 -44 51 -66.5t53.5 -62t66.5 -61t74.5 -45.5t95 -34.5t110.5 -10.5q79 0 142.5 20.5t103.5 50t69.5 74.5t43.5 83t22 86t9 73t1 55h-19q0 -44 -17 -88.5t-52 -86t-100 -67.5t-150 -26q-54 0 -99 11t-84 35 t-64.5 44t-61.5 55q219 74 359 263.5t140 420.5q0 192 -99 359t-268 265.5t-366 98.5q-148 0 -284 -58.5t-234 -156t-156.5 -231t-58.5 -277.5zM336 692q0 189 63.5 348t175 251.5t246.5 92.5q136 0 248.5 -92.5t177 -251.5t64.5 -348q0 -215 -83.5 -388.5t-219.5 -250.5 q-65 60 -130.5 92.5t-160.5 32.5q-138 0 -185 -47q-92 95 -144 242t-52 319zM549 117q26 22 88 22q54 0 98.5 -35t98.5 -102q-164 0 -285 115z" />
<glyph unicode="R" horiz-adv-x="1536" d="M72 0h684v27h-23q-93 0 -154 63t-61 182v406q57 0 95 -1t76 -10t60 -15.5t51 -30.5t44.5 -41.5t44.5 -62.5t48 -78.5t58 -104.5l183 -334h393v27q-50 1 -81 7.5t-63.5 23.5t-66.5 57.5t-73 97t-99 154.5q-27 44 -57.5 97.5t-45 79.5t-36 56t-42 44.5t-51 26.5t-73.5 19 q61 14 103.5 29t83.5 41t65.5 60.5t39.5 86t15 119.5q0 162 -95 260t-280 98h-727v-26h25q198 0 198 -234v-852q0 -120 -61.5 -182.5t-155.5 -62.5h-22v-27zM518 700v658q51 0 84.5 -1t77 -4.5t72.5 -9.5t63 -18t56 -28.5t44 -41.5t34.5 -56.5t20 -74t7.5 -94.5 q0 -61 -12 -110.5t-32 -83.5t-51 -59.5t-63.5 -40t-74.5 -23.5t-79 -12t-83 -3q-10 0 -32 1t-32 1z" />
<glyph unicode="S" horiz-adv-x="1044" d="M92 406l12 -426h25q0 6 1.5 13.5t6.5 20.5t19 21t34 8q27 0 77 -18t122 -36t154 -18q108 0 193.5 34.5t138.5 93.5t80.5 134t27.5 160q0 77 -23.5 138.5t-64 103t-93.5 74.5t-111 58t-116.5 49.5t-111 52.5t-93.5 62t-65 84.5t-24 114.5q0 73 26 126t66.5 78t76 35.5 t68.5 10.5q63 0 121.5 -32t98.5 -79.5t70.5 -101t45 -97.5t14.5 -69h23l-12 388h-21q0 -26 -16 -47t-54 -21q-22 0 -52 14.5t-57 32.5t-72.5 32.5t-94.5 14.5q-99 0 -186 -48t-141 -136t-54 -195q0 -98 36 -170t93 -114t126 -75t138.5 -64t126.5 -68.5t93 -101t36 -150.5 q0 -135 -68.5 -212t-174.5 -77q-79 0 -146 26t-111 67t-77.5 88t-51.5 94t-26.5 78.5t-9.5 48.5h-23zM539 469z" />
<glyph unicode="T" horiz-adv-x="1437" d="M10 1024h29q11 143 118 231t300 88h157v-1071q0 -120 -61.5 -182.5t-155.5 -62.5h-49v-27h742v27h-50q-94 0 -155.5 62.5t-61.5 182.5v1071h158q193 0 300 -88t118 -231h28l-28 360h-1360z" />
<glyph unicode="U" horiz-adv-x="1626" d="M72 1358h24q201 0 201 -234v-757q0 -116 33 -194t105 -124t174.5 -65t252.5 -19q257 0 378.5 108.5t121.5 342.5v493q0 178 18.5 275t57.5 135.5t110 38.5h17v26h-453v-26h16q71 0 108.5 -39.5t53.5 -134t17 -275.5l2 -446q0 -106 -19.5 -184t-64 -137t-122.5 -89 t-190 -30q-411 0 -411 393v708q0 234 200 234h25v26h-655v-26z" />
<glyph unicode="V" horiz-adv-x="1404" d="M-10 1358h24q31 0 57.5 -5.5t44.5 -12.5t35.5 -23.5t27 -26.5t21.5 -35t16.5 -36t16 -41.5t15.5 -40.5q97 -250 211.5 -536t180.5 -447l65 -160h22l444 1145q86 219 236 219h16v26h-452v-26h16q143 0 143 -141q0 -93 -81 -299l-250 -639l-250 628q-94 241 -94 326 q0 63 39 94t127 31h24v26h-655v-26z" />
<glyph unicode="W" horiz-adv-x="2230" d="M-10 1358h24q35 0 66 -12.5t57.5 -38.5t45.5 -49.5t39.5 -64t30 -61.5t26.5 -61l450 -1071h23l374 1104l377 -1104h23l438 1071q59 146 85 186q49 80 128 96q25 5 55 5h17v26h-463v-26h16q152 0 152 -137q0 -79 -60 -226l-292 -714l-261 790q-28 90 -28 146 q0 141 178 141h25v26h-644v-26h25q99 0 144.5 -55.5t45.5 -145.5q0 -71 -32 -162l-244 -714l-289 714q-4 9 -14.5 36t-14.5 37.5t-13 33.5t-13 34.5t-10 30.5t-8.5 31t-4.5 26t-2 25q0 54 38.5 81.5t129.5 27.5h25v26h-645v-26z" />
<glyph unicode="X" horiz-adv-x="1435" d="M-20 0h491v27h-16q-142 0 -142 92t127 252l211 272l172 -248q135 -193 135 -274q0 -94 -153 -94h-25v-27h717v27h-24q-41 0 -84 18.5t-77 45t-71 66.5t-61 71t-52 71l-350 502l238 295q3 4 25 32t32.5 41t36 42t43.5 44.5t45.5 38t51.5 34.5t53 21t57 9h16v26h-461v-26 h17q129 0 129 -78q0 -69 -135 -238l-170 -213l-109 160q-135 193 -135 285q0 84 119 84h24v26h-655v-26h25q38 0 74.5 -14t61.5 -31.5t55 -51.5t45 -55.5t43 -63.5l38 -57l289 -415l-287 -363q-2 -3 -25.5 -34.5t-44 -57t-56.5 -63t-68.5 -63t-74 -44t-79.5 -18.5h-16v-27z " />
<glyph unicode="Y" horiz-adv-x="1331" d="M-37 1358h25q40 0 77 -16.5t62 -37t55 -59.5t43.5 -61t38.5 -66l232 -391q46 -77 62.5 -130t16.5 -138v-187q0 -120 -60.5 -182.5t-154.5 -62.5h-22v-27h684v27h-23q-92 0 -153.5 62.5t-61.5 182.5v187q0 81 17 136t61 130l182 309q31 52 64.5 100.5t78.5 103t93.5 87.5 t89.5 33h16v26h-452v-26h16q129 0 129 -109q0 -86 -106 -266l-160 -276q-9 -16 -20 -33.5t-18 -27.5l-7 -9q-19 30 -35 59l-203 346q-28 47 -43 74.5t-32 71t-17 72.5q0 98 156 98h24v26h-655v-26z" />
<glyph unicode="Z" horiz-adv-x="1441" d="M92 0h1227l20 432h-22q-35 -170 -158 -280.5t-293 -110.5h-508l885 1321v22h-1085l-35 -362h27q20 70 50 124.5t78.5 100.5t121.5 71t167 25h430l-905 -1329v-14z" />
<glyph unicode="[" horiz-adv-x="557" d="M119 -266v1638h315v-57h-182v-1522h203v-59h-336z" />
<glyph unicode="]" horiz-adv-x="557" d="M45 -207v-59h338v1638h-315v-57h182v-1522h-205z" />
<glyph unicode="^" horiz-adv-x="827" d="M121 954h82l198 189l199 -189h82l-233 334h-95z" />
<glyph unicode="_" horiz-adv-x="921" d="M0 -143v-86h922v86h-922z" />
<glyph unicode="`" horiz-adv-x="704" d="M135 1278q0 -43 49 -72l328 -192h76l-322 313q-27 27 -57 27q-32 0 -53 -22t-21 -54z" />
<glyph unicode="a" horiz-adv-x="915" d="M80 195q0 -25 5.5 -50.5t22.5 -56t44 -53.5t75.5 -39t110.5 -16q94 0 148.5 26t86.5 76q21 -37 68.5 -67.5t124.5 -30.5q47 0 79.5 8.5t50 25t24.5 28.5t14 32l-16 8q-16 -30 -36 -44.5t-61 -14.5q-23 0 -39.5 9t-25.5 23t-14 39.5t-6 48.5t-1 60v436q0 70 -24.5 118.5 t-71 74t-101 36.5t-126.5 11q-60 0 -124 -16.5t-113.5 -53t-49.5 -84.5q0 -34 21.5 -57t54.5 -23q31 0 50.5 21.5t24.5 54.5q11 74 43.5 99.5t88.5 25.5q52 0 87 -14.5t53 -34t27.5 -57t11 -63.5t1.5 -75q0 -60 -52.5 -105.5t-125.5 -58.5q-330 -59 -330 -247zM240 186 q0 49 23 88.5t64.5 68.5t82.5 50t95 46.5t83 43.5v-186q0 -64 -8.5 -112t-29.5 -89t-62.5 -62.5t-102.5 -21.5q-48 0 -79 14.5t-44.5 43t-17.5 54t-4 62.5z" />
<glyph unicode="b" horiz-adv-x="1062" d="M31 1356q38 -1 61.5 -4t41.5 -15t26 -24t13 -42.5t6 -58t1 -82.5v-1155h27q5 18 9 27.5t15.5 18t28.5 8.5q8 0 111 -29t182 -29q107 0 192 36.5t138 100t80.5 145.5t27.5 177q0 123 -56 228t-157 168t-225 63q-59 0 -117 -20.5t-84.5 -38t-36.5 -27.5v612h-18 q-215 -35 -266 -39v-20zM311 430q0 77 2.5 128.5t10 104t22 84.5t38 59t59 38.5t83.5 11.5q147 0 224 -119.5t77 -306.5q0 -83 -17.5 -157t-52 -135.5t-94 -97.5t-137.5 -36q-35 0 -62.5 6t-49 15.5t-37.5 28.5t-27 36.5t-18.5 49t-11.5 57t-6 69t-2.5 76.5t-0.5 88z" />
<glyph unicode="c" horiz-adv-x="854" d="M72 430q0 -208 116 -333.5t332 -125.5q291 0 324 234h-23q-11 -42 -26 -70.5t-43 -55t-74 -39.5t-111 -13q-331 0 -331 403q0 183 72 304.5t194 121.5q58 0 87 -12t42 -37.5t24 -81.5q6 -31 29.5 -50.5t56.5 -19.5q34 0 54 21t20 55q0 41 -32 73.5t-81.5 50t-100.5 26 t-99 8.5q-125 0 -224 -63t-152.5 -167.5t-53.5 -228.5z" />
<glyph unicode="d" horiz-adv-x="1095" d="M72 430q0 -95 27.5 -177t80.5 -145.5t138 -100t192 -36.5q95 0 152.5 29.5t99.5 85.5l12 -117h17q61 16 126 26t99 11l35 2v27q-91 0 -117.5 33.5t-26.5 140.5v1206h-20q-213 -35 -264 -39v-20q38 -1 61.5 -4t41.5 -15t26 -24t13 -42.5t6 -58t1 -82.5v-354q-16 20 -32 35 t-47 35.5t-78 31.5t-105 11q-124 0 -225 -63t-157 -168t-56 -228zM236 430q0 92 15 166.5t46.5 134t86.5 92.5t130 33q147 0 206.5 -104.5t59.5 -321.5q0 -219 -58 -322.5t-208 -103.5q-62 0 -111 24t-80 64t-51 96t-28 115.5t-8 126.5z" />
<glyph unicode="e" horiz-adv-x="903" d="M61 430q0 -208 116 -333.5t333 -125.5q156 0 243 64.5t111 169.5h-22q-18 -42 -38.5 -71.5t-53 -55t-80.5 -38.5t-113 -13q-332 0 -332 401q0 84 6 154h621q0 80 -37 142t-94.5 96.5t-118.5 51.5t-119 17q-187 0 -304.5 -134t-117.5 -325zM236 614q16 117 73 179.5 t174 62.5q110 0 161.5 -59t51.5 -183h-460z" />
<glyph unicode="f" horiz-adv-x="581" d="M61 821h162v-549q0 -51 -1 -81t-6 -62t-13.5 -48t-24 -30t-38.5 -19t-56 -5v-27h410v27q-33 0 -55.5 4t-38 18t-23.5 28.5t-12.5 47.5t-5.5 62t-1 85v549h232v41h-232v262q0 77 10.5 133t24.5 83.5t35.5 43.5t34.5 18.5t29 2.5q18 0 27.5 -2t23 -10.5t26.5 -29t29 -54.5 q2 -4 8 -17.5t8 -17t7.5 -13t9 -12.5t10 -8t14.5 -6.5t17 -1.5q31 0 47 17.5t16 45.5q0 35 -28 61.5t-69.5 39t-78.5 18.5t-67 6q-55 0 -99 -12t-71.5 -29t-47.5 -45.5t-29.5 -51.5t-15 -58t-6 -53t-0.5 -48v-262h-162v-41z" />
<glyph unicode="g" horiz-adv-x="882" d="M51 -172q0 -67 34.5 -116t92 -74t118 -36.5t126.5 -11.5q27 0 59 3t74.5 12t82.5 23t79.5 37.5t69 53.5t47.5 74t18 96q0 114 -86.5 184t-222.5 70h-189q-33 0 -56.5 2t-52.5 8.5t-45 23.5t-16 42q0 30 36 53t76 31.5t62 5.5q24 -4 62 -4q125 0 219 81t94 200 q0 117 -94 211q14 17 44 30t50 13q38 0 58 -35q29 -49 73 -49q26 0 40 14.5t14 38.5q0 37 -33.5 58.5t-85.5 21.5q-91 0 -181 -76q-92 76 -198 76q-122 0 -216.5 -91t-94.5 -212q0 -88 53 -157.5t131 -98.5q-55 -9 -93.5 -28.5t-56.5 -44.5t-25 -46.5t-7 -42.5 q0 -65 58 -109.5t150 -44.5h150q71 0 122.5 -15.5t75.5 -34.5t37.5 -47.5t15 -42.5t1.5 -32q0 -11 -3.5 -30.5t-21.5 -55.5t-47 -64.5t-88.5 -50.5t-138.5 -22q-87 0 -152 20.5t-97.5 52.5t-47 62.5t-14.5 59.5q0 69 25.5 97t56.5 28q39 0 59 -17t20 -35q23 11 23 41 q0 26 -29.5 46t-79.5 20q-18 0 -38.5 -7t-43.5 -24t-38 -52t-15 -83zM262 596q0 260 160 260q168 0 168 -260q0 -258 -168 -258q-86 0 -123 67t-37 191z" />
<glyph unicode="h" horiz-adv-x="1128" d="M61 1356q54 -2 81.5 -8.5t45 -29.5t21.5 -58t4 -103v-885q0 -51 -1 -81t-6 -62t-13.5 -48t-24 -30t-38.5 -19t-56 -5v-27h409v27q-33 0 -55.5 4t-38 18t-23.5 28.5t-12 47.5t-5 62t-1 85v248q0 163 35 217q33 49 89 84t122 35q99 0 151 -54t52 -179v-351q0 -61 -2 -95.5 t-9.5 -67.5t-23 -48.5t-41 -24.5t-64.5 -9v-27h410v27q-33 0 -55.5 4t-38 18t-23.5 28.5t-12 47.5t-5 62t-1 85v351q0 69 -14 118t-37 77.5t-60 44.5t-73.5 21t-88.5 5q-215 0 -311 -135v661h-18q-218 -35 -269 -39v-20z" />
<glyph unicode="i" horiz-adv-x="563" d="M76 836q100 -3 123.5 -36t23.5 -163v-365q0 -40 -0.5 -62.5t-2.5 -51t-5.5 -43.5t-10 -32.5t-16 -26t-24 -16.5t-33 -10.5t-43.5 -2.5v-27h404v27q-33 0 -55.5 4t-37.5 18t-23 28t-12 48t-5 62t-1 85v623h-20q-211 -35 -262 -39v-20zM193 1325q0 -37 24.5 -61.5 t61.5 -24.5t62.5 24.5t25.5 61.5t-25.5 62.5t-62.5 25.5t-61.5 -25.5t-24.5 -62.5z" />
<glyph unicode="j" horiz-adv-x="503" d="M-164 -252q0 -35 24 -63t60 -43.5t70.5 -23t62.5 -7.5q295 0 295 393v891h-20q-205 -35 -256 -39v-20q34 -1 57 -5t39.5 -15t25 -22.5t13 -37.5t5.5 -50t1 -69v-705q0 -173 -25.5 -236t-115.5 -63q-40 0 -63.5 18.5t-32.5 44.5t-16.5 52.5t-23.5 45t-45 18.5 q-25 0 -40 -16t-15 -48zM186 1325q0 -37 24.5 -61.5t61.5 -24.5t62.5 24.5t25.5 61.5t-25.5 62.5t-62.5 25.5t-61.5 -25.5t-24.5 -62.5z" />
<glyph unicode="k" horiz-adv-x="976" d="M45 1356q53 0 81 -7t44.5 -31t20.5 -58t4 -101v-887q0 -61 -2 -95.5t-9.5 -67.5t-23 -48.5t-41 -24.5t-64.5 -9v-27h410v27q-33 0 -55.5 4t-38 18t-23.5 28.5t-12 47.5t-5 62t-1 85v109l69 65l152 -161q17 -18 44 -46.5t38 -40.5t26.5 -31t21.5 -29.5t10.5 -24t4.5 -27.5 q0 -38 -22 -48.5t-76 -10.5h-16v-27h528v27h-53q-90 0 -219 141l-349 364l162 154q162 150 250 150h17v26h-400v-26h17q49 0 73.5 -22.5t24.5 -53.5q0 -51 -80 -125l-223 -213v993h-19q-215 -35 -266 -39v-20z" />
<glyph unicode="l" horiz-adv-x="526" d="M43 1356q43 -1 68 -6.5t43 -16t25.5 -35t10.5 -55.5t3 -86v-885q0 -61 -2 -95.5t-9.5 -67.5t-23 -48.5t-41 -24.5t-64.5 -9v-27h410v27q-33 0 -55.5 4t-38 18t-23.5 28.5t-12 47.5t-5 62t-1 85v1143h-19q-215 -35 -266 -39v-20z" />
<glyph unicode="m" horiz-adv-x="1718" d="M72 836q39 -2 61 -4t41 -12t26.5 -20.5t13 -38t6.5 -54.5t1 -80v-355q0 -51 -1 -81t-6 -62t-13.5 -48t-24 -30t-38.5 -19t-56 -5v-27h410v27q-33 0 -55.5 4t-38 18t-23.5 28.5t-12.5 47.5t-5.5 62t-1 85v248q0 86 6.5 135t28.5 82q33 49 89 84t122 35q99 0 151 -54 t52 -179v-351q0 -51 -1 -81t-6 -62t-13.5 -48t-24 -30t-38.5 -19t-56 -5v-27h407v27q-25 0 -43.5 2t-32.5 10t-23.5 15t-16 25t-10 31.5t-5 43.5t-2 52.5t-0.5 65.5v248q0 87 5 131.5t24 77.5q29 50 89 88.5t126 38.5q99 0 150.5 -54t51.5 -179v-351q0 -51 -1 -81t-6 -62 t-13.5 -48t-24 -30t-38.5 -19t-56 -5v-27h410v27q-33 0 -55.5 4t-38 18t-23.5 28.5t-12 47.5t-5 62t-1 85v351q0 69 -15 118.5t-38 78t-62 44.5t-76.5 20.5t-91.5 4.5q-53 0 -98 -9.5t-76 -23t-59 -35.5t-45 -41t-35 -45q-10 49 -34.5 81t-62 47t-75 20.5t-90.5 5.5 q-209 0 -308 -135l-10 135l-14 6q-133 -25 -260 -39v-20z" />
<glyph unicode="n" horiz-adv-x="1136" d="M72 836q38 -2 60.5 -4.5t41 -12.5t26.5 -20.5t13.5 -38t6.5 -53.5t1 -78v-357q0 -51 -1 -81t-6 -62t-13.5 -48t-24 -30t-38.5 -19t-56 -5v-27h410v27q-33 0 -55.5 4t-38 18t-23.5 28.5t-12.5 47.5t-5.5 62t-1 85v254q0 85 6.5 131.5t28.5 79.5q33 49 89 84t122 35 q99 0 151 -54t52 -179v-351q0 -51 -1 -81t-6 -62t-13.5 -48t-24 -30t-38.5 -19t-56 -5v-27h409v27q-33 0 -55.5 4t-38 18t-23.5 28.5t-12 47.5t-5 62t-1 85v351q0 69 -14 118.5t-36.5 78t-60 44.5t-73.5 20.5t-88 4.5q-119 0 -191.5 -35.5t-120.5 -99.5l-10 135l-14 6 q-133 -25 -260 -39v-20z" />
<glyph unicode="o" horiz-adv-x="1073" d="M72 430q0 -122 62.5 -228t169.5 -168.5t233 -62.5q125 0 232 62.5t169.5 168.5t62.5 228t-62.5 228t-169.5 168.5t-232 62.5q-126 0 -233 -62.5t-169.5 -168.5t-62.5 -228zM236 430q0 177 87.5 301.5t213.5 124.5q127 0 214 -124t87 -302t-87 -302t-214 -124 q-126 0 -213.5 124.5t-87.5 301.5z" />
<glyph unicode="p" horiz-adv-x="1124" d="M47 -391v-27h428v27q-98 0 -119.5 80t-21.5 391q54 -56 108 -82.5t148 -26.5q107 0 192 36.5t138 100t80.5 145.5t27.5 177q0 123 -56 228t-157 168t-225 63q-56 0 -100 -11.5t-74.5 -33t-45 -35.5t-32.5 -37l-4 123h-21q-211 -35 -262 -39v-20q54 -2 81 -8t43.5 -30 t20 -57.5t3.5 -103.5v-782q0 -52 -1 -81.5t-6 -61.5t-14.5 -48t-26.5 -30.5t-42.5 -19.5t-61.5 -5zM326 430q0 199 59 312.5t178 113.5q147 0 224 -119.5t77 -306.5q0 -83 -17.5 -157t-52 -135.5t-94 -97.5t-137.5 -36q-59 0 -101 18.5t-68.5 51.5t-41.5 87.5t-20.5 117.5 t-5.5 151z" />
<glyph unicode="q" horiz-adv-x="1064" d="M59 430q0 -125 54 -232.5t160 -175t243 -67.5q145 0 238 102q0 -303 -21.5 -375.5t-120.5 -72.5v-27h428v27q-31 0 -54 4.5t-39.5 12t-27 24t-16.5 32.5t-9 46t-4 56t-1 71v1040h-29q-17 -84 -84 -84q-18 0 -42 12t-48 27t-74.5 27t-113.5 12q-124 0 -225.5 -63 t-157.5 -168t-56 -228zM223 430q0 187 77 306.5t224 119.5q60 0 103 -20.5t69 -55t41 -90.5t20 -116.5t5 -143.5q0 -91 -4.5 -153t-18.5 -121t-40 -93t-69.5 -54.5t-105.5 -20.5q-77 0 -137 38.5t-94.5 103t-52 141t-17.5 159.5z" />
<glyph unicode="r" horiz-adv-x="724" d="M41 836q38 -2 60.5 -4.5t41 -12.5t26.5 -20.5t13.5 -38t6.5 -53.5t1 -78v-357q0 -51 -1 -81t-6 -62t-13.5 -48t-24 -30t-38.5 -19t-56 -5v-27h410v27q-33 0 -55.5 4t-38 18t-23.5 28.5t-12 47.5t-5 62t-1 85v299q0 112 28 158q26 43 62 67.5t69 24.5q37 0 60.5 -17.5 t33 -38.5t27 -38.5t43.5 -17.5q29 0 47.5 22.5t18.5 50.5q0 39 -37 68t-100 29q-158 0 -252 -125l-11 135l-14 6q-133 -25 -260 -39v-20z" />
<glyph unicode="s" horiz-adv-x="759" d="M96 270l17 -284h26q0 13 15 22.5t39 9.5t49 -12t61 -23.5t86 -11.5q69 0 125 24t88.5 62t50 80.5t17.5 83.5q0 58 -19 105t-50.5 76.5t-72 55.5t-82 43.5t-82 39.5t-72 44.5t-50.5 58t-19 79.5q0 36 11.5 62.5t27 40t36.5 21.5t34.5 9.5t25.5 1.5q49 0 91.5 -29t67 -68.5 t38.5 -75.5t14 -56h15l-17 256h-12q0 -43 -35 -43q-12 0 -67.5 23.5t-98.5 23.5q-34 0 -72 -14t-73.5 -40.5t-58.5 -74t-23 -107.5q0 -63 22 -111.5t58 -78.5t78.5 -54.5t85.5 -47.5t79 -49t58 -67t22 -95q0 -70 -43.5 -108t-107.5 -38q-59 0 -108 25t-77 59t-48 74.5 t-27 67t-8 40.5h-15z" />
<glyph unicode="t" horiz-adv-x="608" d="M84 829h123l-17 -649v-11q0 -99 54 -147q56 -52 159 -51q45 0 81 7.5t57.5 17t39 24.5t24.5 25.5t15 24.5t9 16l-17 10q-46 -82 -145 -82q-71 0 -97 57.5t-26 202.5v555h240v33h-240v262h-20q-10 -52 -23.5 -90t-39 -77.5t-70.5 -64.5t-107 -34v-29z" />
<glyph unicode="u" horiz-adv-x="1130" d="M57 836q41 0 67 -8t42.5 -23t24 -47.5t10 -68t2.5 -99.5v-346q0 -73 18 -125t44.5 -80t70.5 -44t82 -20t92 -4q197 0 276 115l9 -106l14 -7q133 11 260 25v20q-39 2 -61 4t-40.5 12.5t-26 20t-13 37.5t-6 53t-0.5 78v639h-269v-26q33 0 55.5 -4t37.5 -18.5t23 -28t12 -48 t4.5 -62t0.5 -85.5v-273q0 -68 -1 -96.5t-8.5 -66t-24.5 -58.5q-71 -92 -224 -92q-85 0 -137.5 58.5t-52.5 181.5v618h-281v-26z" />
<glyph unicode="v" horiz-adv-x="917" d="M-20 846h16q24 0 43 -4.5t34 -16t24.5 -20.5t21 -30t16 -31.5t15.5 -36.5l290 -713h17l243 565l21 49t28 64t31 60.5t38.5 59t42.5 37.5t50 17h11v16h-314v-16h10q45 0 75 -31t30 -82q0 -52 -55 -174l-156 -364l-150 368q-57 143 -57 191q0 38 34.5 65t82.5 27h14v16 h-456v-16z" />
<glyph unicode="w" horiz-adv-x="1347" d="M0 846h16q35 0 60.5 -10t43 -33t27 -42t23.5 -54l287 -713h14l213 641l213 -641h14l217 565q13 33 20.5 52t25.5 59.5t34 65.5t37 53.5t44.5 42.5t47.5 14h11v16h-314v-16h10q42 0 73.5 -30.5t31.5 -76.5q0 -45 -53 -180l-127 -330l-213 643h-27l-211 -643l-135 334 q-57 143 -57 191q0 38 34.5 65t81.5 27h15v16h-457v-16z" />
<glyph unicode="x" horiz-adv-x="917" d="M-8 0h403v27h-16q-68 0 -93.5 22t-25.5 74q0 54 59 139l93 131l129 -178q2 -4 12.5 -18t16 -23t13 -23.5t11.5 -29.5t4 -29q0 -38 -22 -51.5t-64 -13.5h-16v-27h460v27h-12q-25 0 -48.5 7.5t-39 16.5t-34 28t-26.5 29.5t-24 33.5t-20 28l-254 340l135 164 q53 65 116.5 113.5t116.5 48.5h17v26h-359v-26h17q49 0 75.5 -22.5t26.5 -53.5q0 -44 -74 -131l-84 -101l-116 156q-50 62 -50 92q0 24 28 42t61 18h16v26h-418v-26h19q27 0 51 -10t44 -30.5t33 -37t30 -43t24 -35.5l192 -270l-163 -222q-50 -67 -109.5 -114t-118.5 -47h-16 v-27z" />
<glyph unicode="y" horiz-adv-x="956" d="M-10 846h16q34 0 59 -10t43 -33.5t27.5 -41t24.5 -54.5l293 -705q0 -42 -8 -79.5t-17 -58t-29 -61.5q-17 -36 -55.5 -67t-77.5 -31q-15 0 -38.5 8t-43.5 8q-28 0 -49.5 -12.5t-21.5 -44.5q0 -28 25.5 -51t68.5 -23q134 0 229 228l309 741q13 32 22.5 53t28 59.5t35.5 65 t38 54t43 41.5t44 14h11v16h-314v-16h11q45 0 74.5 -31t29.5 -82q0 -39 -53 -174l-168 -407l-174 411q-58 145 -58 191q0 38 34.5 65t82.5 27h14v16h-456v-16z" />
<glyph unicode="z" horiz-adv-x="958" d="M61 0h803l29 291h-23q-14 -68 -30.5 -108.5t-46 -74.5t-79 -50t-122 -24.5t-182.5 -8.5h-158l582 817v20h-687l-26 -250h22q33 129 89.5 177.5t189.5 48.5h223l-584 -818v-20z" />
<glyph unicode="{" horiz-adv-x="614" d="M29 500q0 28 22 28q6 0 19 -2t18 -2q158 0 154 162q-2 44 -26.5 188t-25.5 203q-4 118 65.5 200.5t178.5 88.5q31 2 86 2q15 0 15 -27q0 -26 -15 -26q-2 0 -25 1.5t-34 0.5q-59 0 -106 -35t-44 -84q4 -87 25.5 -205.5t25.5 -163.5q12 -121 -51 -222t-141 -103q-6 0 -6 -6 t6 -6q77 -3 132.5 -86.5t49.5 -198.5q-4 -63 -19 -196t-18 -204q-3 -58 33 -98.5t94 -46.5q18 -1 29.5 -0.5t24 1.5t16.5 1q12 0 12 -22q0 -25 -16 -25q-70 0 -107 2q-102 6 -160 81t-55 179q2 104 23 244t24 168q10 89 -22.5 135.5t-122.5 46.5q-5 0 -18 -2t-19 -2 q-9 0 -15.5 9t-6.5 22z" />
<glyph unicode="|" horiz-adv-x="460" d="M180 -362h101v1804h-101v-1804z" />
<glyph unicode="}" horiz-adv-x="614" d="M29 1341q0 -26 16 -26q4 0 25.5 2t31.5 2q60 -2 106.5 -37t43.5 -84q-5 -89 -26 -210t-25 -159q-8 -80 19.5 -156t75 -121.5t97.5 -47.5q8 0 8 -6t-6 -6q-78 -3 -133.5 -86.5t-48.5 -198.5q3 -71 18 -204t19 -196q1 -58 -35 -98.5t-92 -46.5q-18 -1 -29.5 -0.5t-24.5 1.5 t-16 1q-14 0 -14 -22q0 -25 16 -25q70 0 107 2q102 6 160 81t55 179q-2 104 -23 244t-24 168q-8 90 23.5 136t121.5 46q6 0 18.5 -2t18.5 -2q9 0 16 9t7 22q0 12 -6.5 20t-16.5 8q-6 0 -19 -2t-18 -2q-159 0 -151 162q1 48 25 191.5t26 199.5q3 118 -67 200.5t-179 88.5 q-29 2 -84 2q-16 0 -16 -27z" />
<glyph unicode="~" horiz-adv-x="712" d="M37 354h41q1 3 3 8t10 17t18 21.5t27.5 17.5t37.5 8q55 0 148 -41t153 -41q69 0 120.5 54t51.5 120l-31 4q0 -31 -31.5 -53.5t-95.5 -22.5q-37 0 -130.5 40t-153.5 40q-59 0 -113.5 -48t-54.5 -124z" />
<glyph unicode="&#xa1;" horiz-adv-x="479" d="M133 1315q0 44 31.5 75t75.5 31t75 -31t31 -75q0 -45 -31 -77t-75 -32t-75.5 32.5t-31.5 76.5zM135 141l94 1004h21l94 -1004q5 -58 -19 -95.5t-85 -37.5t-85.5 38.5t-19.5 94.5z" />
<glyph unicode="&#xa2;" horiz-adv-x="854" d="M72 430q0 -208 116 -333.5t332 -125.5q291 0 324 234h-23q-11 -42 -26 -70.5t-43 -55t-74 -39.5t-111 -13q-331 0 -331 403q0 183 72 304.5t194 121.5q58 0 87 -12t42 -37.5t24 -81.5q6 -31 29.5 -50.5t56.5 -19.5q34 0 54 21t20 55q0 41 -32 73.5t-81.5 50t-100.5 26 t-99 8.5q-125 0 -224 -63t-152.5 -167.5t-53.5 -228.5zM393 -139h37l143 1153h-38z" />
<glyph unicode="&#xa3;" horiz-adv-x="1619" d="M57 129q0 -68 78.5 -105.5t186.5 -37.5q193 0 337 157q318 -155 476 -155q132 0 224.5 91.5t92.5 201.5h-31q-26 -87 -103 -133t-188 -46q-16 0 -34.5 1.5t-41 5.5t-41.5 8t-48 11t-47.5 12t-52 14.5t-51 14.5t-55 16.5t-52.5 15.5q90 122 129 233h251l3 39 q-191 -2 -240 -2q16 68 22 102h240l2 39q-196 -2 -235 -2q10 78 10 156q0 280 88.5 444t232.5 164q91 0 148 -65.5t57 -149.5q0 -51 -18 -104t-55.5 -92t-84.5 -39q-72 0 -114 30l-15 -18q14 -18 51.5 -34.5t90.5 -16.5q107 0 187.5 76.5t80.5 193.5q0 121 -84 185.5 t-244 64.5q-147 0 -263.5 -101.5t-178 -265.5t-61.5 -354v-72h-224v-39h222q-3 -55 -9 -100h-237v-39h231q-17 -94 -78 -207q-167 47 -245 47q-145 0 -227.5 -39.5t-82.5 -105.5zM178 129q0 117 193 117q102 0 209 -66q-116 -162 -258 -162q-66 0 -105 28.5t-39 82.5z" />
<glyph unicode="&#xa4;" horiz-adv-x="1013" d="M119 408l57 -58l166 166l-57 57zM119 1069l166 -166l57 58l-166 165zM178 737q0 -136 97.5 -233.5t234.5 -97.5t234.5 97.5t97.5 233.5q0 137 -98 234.5t-234 97.5t-234 -97.5t-98 -234.5zM260 737q0 103 73.5 176.5t176.5 73.5t177.5 -73.5t74.5 -176.5t-74.5 -177.5 t-177.5 -74.5t-176.5 74.5t-73.5 177.5zM672 516l166 -166l57 58l-166 165zM672 961l57 -58l166 166l-57 57z" />
<glyph unicode="&#xa6;" horiz-adv-x="921" d="M412 -344h98v827h-98v-827zM412 651h98v791h-98v-791z" />
<glyph unicode="&#xa7;" horiz-adv-x="976" d="M129 598q0 -90 40.5 -163t96.5 -118q100 -85 291 -198q170 -101 170 -223q0 -77 -72.5 -130t-167.5 -53q-72 0 -116.5 28.5t-44.5 72.5q0 12 17 31t34.5 43.5t17.5 48.5q0 33 -31 57t-71 24q-34 0 -68.5 -31.5t-34.5 -86.5q0 -37 17.5 -75.5t53.5 -75.5t103.5 -60 t155.5 -23q104 0 195.5 74.5t91.5 183.5q0 96 -55 186.5t-170 155.5h53q30 0 67 13.5t74 40.5t61.5 76t24.5 110q0 126 -133 256q-19 18 -43.5 36.5t-58 40t-54 34t-64.5 39t-58 34.5q-81 48 -109 75q-61 59 -61 140q0 65 65 113.5t148 48.5q71 0 116 -24.5t45 -69.5 q0 -13 -15.5 -28t-30.5 -37.5t-15 -53.5q0 -34 29.5 -56t66.5 -22q38 0 66 28.5t28 92.5q0 93 -88 155t-209 62q-122 0 -206 -74.5t-84 -197.5q0 -43 16 -82.5t49.5 -76.5t60 -60.5t72.5 -59.5q-27 1 -60 -5.5t-70 -23t-67 -41t-49.5 -64t-19.5 -87.5zM209 641 q0 73 82.5 115t163.5 24q21 -16 87.5 -60.5t92.5 -64.5q3 -2 21 -16t25 -19.5t23.5 -20t24.5 -23.5t20 -25t18 -29.5t10.5 -31t4.5 -35.5q0 -86 -72 -123t-173 -29q-5 3 -51 34t-78.5 54t-71 51.5t-53.5 44.5q-74 77 -74 154z" />
<glyph unicode="&#xa8;" horiz-adv-x="706" d="M94 1266q0 -37 24.5 -61.5t61.5 -24.5t62.5 24.5t25.5 61.5t-25.5 62.5t-62.5 25.5t-61.5 -25.5t-24.5 -62.5zM438 1266q0 -37 24.5 -61.5t61.5 -24.5t62.5 24.5t25.5 61.5t-25.5 62.5t-62.5 25.5t-61.5 -25.5t-24.5 -62.5z" />
<glyph unicode="&#xa9;" horiz-adv-x="1198" d="M86 436q0 -209 146.5 -355.5t355.5 -146.5q137 0 253.5 67t184.5 182.5t68 252.5q0 138 -68 254.5t-184.5 184t-253.5 67.5t-252.5 -67.5t-182.5 -184t-67 -254.5zM147 442q0 187 129 318t314 131q186 0 315 -131.5t129 -317.5t-129 -317t-315 -131t-314.5 131 t-128.5 317zM281 444q0 -151 83 -242t240 -91q212 0 234 168h-35q-34 -121 -174 -121q-211 0 -211 286q0 128 47.5 210.5t124.5 82.5q62 0 81.5 -15.5t30.5 -64.5q12 -49 64 -49q24 0 37.5 13.5t13.5 37.5q0 40 -40 68t-89 38.5t-98 10.5q-135 0 -222 -97.5t-87 -234.5z" />
<glyph unicode="&#xaa;" horiz-adv-x="475" d="M18 973q0 -20 8 -42.5t25.5 -46.5t53.5 -39.5t85 -15.5q46 0 86 18.5t62 49.5q9 -13 13 -18t17.5 -18t33 -19t44.5 -6q51 0 79 26.5t28 57.5l-18 4q-4 -15 -16 -27t-30 -12q-30 0 -39.5 26t-9.5 70v281q0 145 -209 145q-28 0 -59.5 -5.5t-60.5 -16.5t-47.5 -29.5 t-18.5 -40.5q0 -24 14.5 -38.5t38.5 -14.5q19 0 36 15t20 36q19 59 73 59q62 0 86.5 -35t24.5 -100q0 -77 -107 -92q-97 -11 -155 -55.5t-58 -116.5zM131 967q0 34 8 57t30 40t41 26.5t60 27t68 31.5v-115q0 -168 -123 -168q-47 0 -65.5 25t-18.5 76z" />
<glyph unicode="&#xac;" horiz-adv-x="1089" d="M113 731h776v-313h100v407h-876v-94z" />
<glyph unicode="&#xad;" horiz-adv-x="690" d="M98 395l447 -6l12 100l-459 -6v-88z" />
<glyph unicode="&#xae;" horiz-adv-x="1705" />
<glyph unicode="&#xb0;" horiz-adv-x="610" d="M74 1061q0 -97 68 -165.5t163 -68.5q97 0 165.5 68.5t68.5 165.5q0 95 -68.5 163t-165.5 68q-95 0 -163 -68t-68 -163zM150 1061q0 65 45.5 110.5t109.5 45.5q65 0 111.5 -46t46.5 -110q0 -66 -46.5 -112t-111.5 -46t-110 46t-45 112z" />
<glyph unicode="&#xb4;" horiz-adv-x="706" d="M119 1014h76l327 192q49 29 49 72q0 33 -20.5 54.5t-52.5 21.5q-31 0 -58 -27z" />
<glyph unicode="&#xb6;" horiz-adv-x="987" d="M57 1036q0 -102 52 -178.5t131.5 -113.5t171.5 -37h96v-243t-0.5 -258.5t-1 -227t-0.5 -172.5v-72q0 -17 3 -21t15 -4h41q12 0 15.5 5t3.5 22l-2 1610h172v-1610q0 -25 14 -25h47q9 0 12.5 4t3.5 17v113.5t-0.5 286t-1 378.5t-0.5 431.5v404.5q87 -5 103 -5q18 0 18 19 v37q0 14 -14 14q-305 0 -461 -4q-192 -6 -305 -96.5t-113 -274.5z" />
<glyph unicode="&#xb7;" horiz-adv-x="466" d="M129 446q0 -44 31.5 -75t75.5 -31t75 31t31 75q0 45 -31 77t-75 32t-75.5 -32.5t-31.5 -76.5z" />
<glyph unicode="&#xb8;" horiz-adv-x="718" d="M197 -412l4 -26q113 0 196.5 61.5t83.5 151.5q0 60 -47.5 92.5t-126.5 23.5l174 115h-102l-166 -160v-22q65 4 99 -24.5t34 -78.5q0 -58 -43.5 -95.5t-105.5 -37.5z" />
<glyph unicode="&#xba;" horiz-adv-x="686" d="M102 1057q0 -89 69.5 -159.5t166.5 -70.5q98 0 169 63.5t71 174.5q0 105 -71.5 168t-168.5 63q-85 0 -160.5 -65.5t-75.5 -173.5zM203 1059q0 61 13 103.5t35.5 63t44 28.5t46.5 8q23 0 43.5 -8t42.5 -27.5t35.5 -62t13.5 -103.5q0 -63 -14 -106t-38 -62t-45 -26t-44 -7 q-19 0 -38.5 8t-42.5 27t-37.5 61.5t-14.5 102.5z" />
<glyph unicode="&#xbf;" horiz-adv-x="944" d="M111 246q0 -110 42 -203t106.5 -150.5t138 -89.5t141.5 -32q60 0 124.5 27t107 68.5t42.5 80.5q0 20 -11 33.5t-26 13.5q-35 0 -55.5 -19.5t-32.5 -62.5q-29 -105 -137 -105q-114 0 -203.5 122.5t-89.5 318.5q0 97 20 173t71.5 127.5t129.5 51.5q209 0 209 -262h43v584 h-63v-347q-39 39 -78 52.5t-113 13.5q-71 0 -136 -25.5t-116.5 -73.5t-82.5 -125t-31 -171zM596 1124q0 -44 31 -75t75 -31t75.5 31t31.5 75t-31.5 76.5t-75.5 32.5t-75 -32t-31 -77z" />
<glyph unicode="&#xc0;" d="M10 0h453v27h-17q-84 0 -120.5 50.5t-36.5 127.5q0 69 33 149l81 185h478l24 -62q48 -123 71 -198t23 -127q0 -63 -39 -94t-126 -31h-25v-27h655v27h-24q-150 0 -236 221l-448 1138h-6l-488 -1079q-58 -125 -91 -174q-71 -106 -144 -106h-17v-27zM422 580l237 522 l205 -522h-442zM500 1747q0 -43 49 -72l328 -192h75l-321 313q-27 27 -58 27q-32 0 -52.5 -21.5t-20.5 -54.5z" />
<glyph unicode="&#xc1;" d="M10 0h453v27h-17q-84 0 -120.5 50.5t-36.5 127.5q0 69 33 149l81 185h478l24 -62q48 -123 71 -198t23 -127q0 -63 -39 -94t-126 -31h-25v-27h655v27h-24q-150 0 -236 221l-448 1138h-6l-488 -1079q-58 -125 -91 -174q-71 -106 -144 -106h-17v-27zM422 580l237 522 l205 -522h-442zM621 1483h75l328 192q49 29 49 72q0 32 -21 54t-53 22q-30 0 -57 -27z" />
<glyph unicode="&#xc2;" d="M10 0h453v27h-17q-84 0 -120.5 50.5t-36.5 127.5q0 69 33 149l81 185h478l24 -62q48 -123 71 -198t23 -127q0 -63 -39 -94t-126 -31h-25v-27h655v27h-24q-150 0 -236 221l-448 1138h-6l-488 -1079q-58 -125 -91 -174q-71 -106 -144 -106h-17v-27zM422 580l237 522 l205 -522h-442zM504 1483h82l198 188l199 -188h82l-234 334h-94z" />
<glyph unicode="&#xc3;" d="M10 0h453v27h-17q-84 0 -120.5 50.5t-36.5 127.5q0 69 33 149l81 185h478l24 -62q48 -123 71 -198t23 -127q0 -63 -39 -94t-126 -31h-25v-27h655v27h-24q-150 0 -236 221l-448 1138h-6l-488 -1079q-58 -125 -91 -174q-71 -106 -144 -106h-17v-27zM422 580l237 522 l205 -522h-442zM432 1659h41q1 3 3 8t10 17t18 21.5t27.5 17.5t37.5 8q55 0 148 -41t153 -41q69 0 120.5 54t51.5 120l-30 4q0 -31 -31.5 -53.5t-95.5 -22.5q-37 0 -131 40t-154 40q-59 0 -113.5 -48t-54.5 -124z" />
<glyph unicode="&#xc4;" d="M10 0h453v27h-17q-84 0 -120.5 50.5t-36.5 127.5q0 69 33 149l81 185h478l24 -62q48 -123 71 -198t23 -127q0 -63 -39 -94t-126 -31h-25v-27h655v27h-24q-150 0 -236 221l-448 1138h-6l-488 -1079q-58 -125 -91 -174q-71 -106 -144 -106h-17v-27zM422 580l237 522 l205 -522h-442zM526 1735q0 -37 24.5 -61.5t61.5 -24.5t62.5 24.5t25.5 61.5t-25.5 62.5t-62.5 25.5t-61.5 -25.5t-24.5 -62.5zM870 1735q0 -37 24.5 -61.5t61.5 -24.5t62.5 24.5t25.5 61.5t-25.5 62.5t-62.5 25.5t-61.5 -25.5t-24.5 -62.5z" />
<glyph unicode="&#xc5;" d="M10 0h453v27h-17q-84 0 -120.5 50.5t-36.5 127.5q0 69 33 149l81 185h478l24 -62q48 -123 71 -198t23 -127q0 -63 -39 -94t-126 -31h-25v-27h655v27h-24q-150 0 -236 221l-448 1138h-6l-488 -1079q-58 -125 -91 -174q-71 -106 -144 -106h-17v-27zM422 580l237 522 l205 -522h-442zM590 1589q0 -63 43.5 -107t105.5 -44q63 0 107.5 44t44.5 107q0 62 -44.5 106t-107.5 44q-61 0 -105 -44t-44 -106zM645 1589q0 40 28 67t68 27t67.5 -26.5t27.5 -67.5q0 -39 -28 -67.5t-67 -28.5q-41 0 -68.5 28.5t-27.5 67.5z" />
<glyph unicode="&#xc6;" horiz-adv-x="1949" d="M10 0h453v27h-17q-143 0 -143 133q0 13 7.5 35.5t19.5 48.5t22.5 47t21.5 42l11 21l166 308h348v-390q0 -120 -60.5 -182.5t-154.5 -62.5h-22v-27h1206l14 401h-22q-19 -187 -123.5 -281.5t-306.5 -94.5q-167 0 -245.5 60.5t-78.5 186.5v394h113q105 0 168 -65t63 -173 v-22h23q-1 36 -4 139.5t-3 163.5q0 78 7 239h-23v-22q0 -46 -10 -83.5t-33 -71t-66.5 -52.5t-103.5 -19h-131v658h231q195 0 296 -78t112 -219h29l-23 323h-1018v-26h25q62 0 104 -31l-551 -1020q-33 -61 -60 -103.5t-62.5 -86.5t-75 -67t-80.5 -23h-23v-27zM573 702 l326 607v-607h-326z" />
<glyph unicode="&#xc7;" horiz-adv-x="1368" d="M88 692q0 -342 196 -532.5t531 -190.5l-129 -123v-22q65 4 99 -24.5t34 -78.5q0 -58 -43.5 -95.5t-105.5 -37.5l4 -26q113 0 196.5 61.5t83.5 151.5q0 60 -47.5 92.5t-126.5 23.5q4 3 20.5 15t22.5 16t21.5 14t26.5 15.5t27.5 13t33.5 13t37 10.5q68 17 128 46.5 t115.5 77t88 120.5t32.5 163h-26q0 -156 -126.5 -263t-336.5 -107q-152 0 -270.5 87t-183 239t-64.5 341t63.5 349t175.5 254t246 94q90 0 160 -20.5t132 -69t108.5 -135t78.5 -212.5h19l-11 430h-22q-4 -18 -19.5 -36.5t-35.5 -18.5q-19 0 -78.5 22t-155 44t-201.5 22 q-146 0 -277.5 -60.5t-222.5 -160t-144.5 -231.5t-53.5 -271z" />
<glyph unicode="&#xc8;" horiz-adv-x="1351" d="M72 0h1231l14 401h-23q-19 -187 -127.5 -281.5t-318.5 -94.5q-172 0 -252 60t-80 187v449h113q106 0 168.5 -66t62.5 -176v-22h23v542h-23v-22q0 -47 -10 -85.5t-33 -72t-66 -52.5t-104 -19h-131v610h244q195 0 295.5 -78t111.5 -219h29l-22 323h-1090v-26h25 q200 0 200 -234l2 -852q0 -120 -61.5 -182.5t-155.5 -62.5h-22v-27zM489 1747q0 -42 50 -72l327 -192h76l-321 313q-27 27 -58 27q-32 0 -53 -22t-21 -54z" />
<glyph unicode="&#xc9;" horiz-adv-x="1351" d="M72 0h1231l14 401h-23q-19 -187 -127.5 -281.5t-318.5 -94.5q-172 0 -252 60t-80 187v449h113q106 0 168.5 -66t62.5 -176v-22h23v542h-23v-22q0 -47 -10 -85.5t-33 -72t-66 -52.5t-104 -19h-131v610h244q195 0 295.5 -78t111.5 -219h29l-22 323h-1090v-26h25 q200 0 200 -234l2 -852q0 -120 -61.5 -182.5t-155.5 -62.5h-22v-27zM610 1483h76l328 192q49 29 49 72q0 32 -21 54t-53 22q-30 0 -57 -27z" />
<glyph unicode="&#xca;" horiz-adv-x="1351" d="M72 0h1231l14 401h-23q-19 -187 -127.5 -281.5t-318.5 -94.5q-172 0 -252 60t-80 187v449h113q106 0 168.5 -66t62.5 -176v-22h23v542h-23v-22q0 -47 -10 -85.5t-33 -72t-66 -52.5t-104 -19h-131v610h244q195 0 295.5 -78t111.5 -219h29l-22 323h-1090v-26h25 q200 0 200 -234l2 -852q0 -120 -61.5 -182.5t-155.5 -62.5h-22v-27zM494 1483h81l199 188l199 -188h82l-234 334h-94z" />
<glyph unicode="&#xcb;" horiz-adv-x="1351" d="M72 0h1231l14 401h-23q-19 -187 -127.5 -281.5t-318.5 -94.5q-172 0 -252 60t-80 187v449h113q106 0 168.5 -66t62.5 -176v-22h23v542h-23v-22q0 -47 -10 -85.5t-33 -72t-66 -52.5t-104 -19h-131v610h244q195 0 295.5 -78t111.5 -219h29l-22 323h-1090v-26h25 q200 0 200 -234l2 -852q0 -120 -61.5 -182.5t-155.5 -62.5h-22v-27zM516 1735q0 -37 24.5 -61.5t61.5 -24.5t62.5 24.5t25.5 61.5t-25.5 62.5t-62.5 25.5t-61.5 -25.5t-24.5 -62.5zM860 1735q0 -37 24.5 -61.5t61.5 -24.5t62.5 24.5t25.5 61.5t-25.5 62.5t-62.5 25.5 t-61.5 -25.5t-24.5 -62.5z" />
<glyph unicode="&#xcc;" horiz-adv-x="827" d="M72 0h686v27h-23q-94 0 -155.5 62.5t-61.5 182.5v852q0 234 201 234h24v26h-657v-26h25q200 0 200 -234v-852q0 -120 -61.5 -182.5t-155.5 -62.5h-22v-27zM129 1747q0 -43 49 -72l328 -192h76l-322 313q-27 27 -57 27q-32 0 -53 -22t-21 -54z" />
<glyph unicode="&#xcd;" horiz-adv-x="827" d="M72 0h686v27h-23q-94 0 -155.5 62.5t-61.5 182.5v852q0 234 201 234h24v26h-657v-26h25q200 0 200 -234v-852q0 -120 -61.5 -182.5t-155.5 -62.5h-22v-27zM250 1483h76l327 192q49 29 49 72q0 33 -20.5 54.5t-52.5 21.5q-31 0 -58 -27z" />
<glyph unicode="&#xce;" horiz-adv-x="827" d="M72 0h686v27h-23q-94 0 -155.5 62.5t-61.5 182.5v852q0 234 201 234h24v26h-657v-26h25q200 0 200 -234v-852q0 -120 -61.5 -182.5t-155.5 -62.5h-22v-27zM133 1483h82l199 188l198 -188h82l-233 334h-94z" />
<glyph unicode="&#xcf;" horiz-adv-x="827" d="M72 0h686v27h-23q-94 0 -155.5 62.5t-61.5 182.5v852q0 234 201 234h24v26h-657v-26h25q200 0 200 -234v-852q0 -120 -61.5 -182.5t-155.5 -62.5h-22v-27zM156 1735q0 -37 24.5 -61.5t61.5 -24.5t62.5 24.5t25.5 61.5t-25.5 62.5t-62.5 25.5t-61.5 -25.5t-24.5 -62.5z M500 1735q0 -37 24.5 -61.5t61.5 -24.5t62.5 24.5t25.5 61.5t-25.5 62.5t-62.5 25.5t-61.5 -25.5t-24.5 -62.5z" />
<glyph unicode="&#xd0;" horiz-adv-x="1605" d="M72 0h737q159 0 283 40t202.5 105.5t129.5 157t71.5 187t20.5 202.5q0 96 -21 187t-76 185t-139 163t-221 113t-311 44h-662v-26h25q200 0 200 -234v-397h-213v-51h213v-404q0 -120 -61.5 -182.5t-155.5 -62.5h-22v-27zM518 272v402l381 2v55l-381 -2v617h170 q126 0 229.5 -45t170 -115t112 -159t65 -173t19.5 -162q0 -122 -39.5 -240t-110.5 -213t-180 -153.5t-237 -58.5q-36 0 -55.5 1.5t-46.5 8.5t-41.5 22.5t-29 42t-20.5 69t-6 101.5z" />
<glyph unicode="&#xd1;" horiz-adv-x="1607" d="M61 0h488v27h-23q-92 0 -146 61.5t-54 183.5v953l989 -1237h24v921q0 178 19 275t58 135.5t110 38.5h16v26h-452v-26h16q71 0 108.5 -39.5t53.5 -134t16 -275.5v-571l-840 1046h-376v-26h24q197 0 197 -228v-858q0 -121 -56.5 -183t-148.5 -62h-23v-27zM498 1653h41 q1 3 3 7.5t10 17t18 22t27.5 17t37.5 7.5q55 0 148 -41t153 -41q69 0 120.5 54.5t51.5 120.5l-31 4q0 -31 -31.5 -53.5t-95.5 -22.5q-37 0 -130.5 40t-153.5 40q-59 0 -113.5 -48t-54.5 -124z" />
<glyph unicode="&#xd2;" horiz-adv-x="1646" d="M90 692q0 -144 58.5 -277.5t156.5 -231t234 -156t284 -58.5q197 0 366 98.5t268 265.5t99 359t-99 359t-268 265.5t-366 98.5q-148 0 -284 -58.5t-234 -156t-156.5 -231t-58.5 -277.5zM338 692q0 189 63.5 348t175 251.5t246.5 92.5q136 0 248.5 -92.5t177 -251.5 t64.5 -348q0 -188 -64.5 -346.5t-177.5 -251t-248 -92.5q-134 0 -246 92.5t-175.5 251t-63.5 346.5zM555 1745q0 -43 49 -72l328 -192h76l-322 313q-27 27 -57 27q-32 0 -53 -22t-21 -54z" />
<glyph unicode="&#xd3;" horiz-adv-x="1646" d="M90 692q0 -144 58.5 -277.5t156.5 -231t234 -156t284 -58.5q197 0 366 98.5t268 265.5t99 359t-99 359t-268 265.5t-366 98.5q-148 0 -284 -58.5t-234 -156t-156.5 -231t-58.5 -277.5zM338 692q0 189 63.5 348t175 251.5t246.5 92.5q136 0 248.5 -92.5t177 -251.5 t64.5 -348q0 -188 -64.5 -346.5t-177.5 -251t-248 -92.5q-134 0 -246 92.5t-175.5 251t-63.5 346.5zM637 1536h76l327 193q50 30 50 71q0 32 -21 54t-53 22q-31 0 -58 -27z" />
<glyph unicode="&#xd4;" horiz-adv-x="1646" d="M90 692q0 -144 58.5 -277.5t156.5 -231t234 -156t284 -58.5q197 0 366 98.5t268 265.5t99 359t-99 359t-268 265.5t-366 98.5q-148 0 -284 -58.5t-234 -156t-156.5 -231t-58.5 -277.5zM338 692q0 189 63.5 348t175 251.5t246.5 92.5q136 0 248.5 -92.5t177 -251.5 t64.5 -348q0 -188 -64.5 -346.5t-177.5 -251t-248 -92.5q-134 0 -246 92.5t-175.5 251t-63.5 346.5zM543 1483h82l198 188l199 -188h82l-234 334h-94z" />
<glyph unicode="&#xd5;" horiz-adv-x="1642" d="M88 692q0 -144 58.5 -277.5t156.5 -231t234 -156t284 -58.5q197 0 366 98.5t268 265.5t99 359t-99 359t-268 265.5t-366 98.5q-148 0 -284 -58.5t-234 -156t-156.5 -231t-58.5 -277.5zM336 692q0 189 63.5 348t175 251.5t246.5 92.5q136 0 248.5 -92.5t177 -251.5 t64.5 -348q0 -188 -64.5 -346.5t-177.5 -251t-248 -92.5q-134 0 -246 92.5t-175.5 251t-63.5 346.5zM516 1669h41q1 3 3 8t10 17t18 21.5t27.5 17.5t37.5 8q54 0 147 -41t154 -41q69 0 120.5 54t51.5 120l-30 4q0 -31 -31.5 -53.5t-95.5 -22.5q-37 0 -131 40t-154 40 q-59 0 -113.5 -48t-54.5 -124z" />
<glyph unicode="&#xd6;" horiz-adv-x="1646" d="M90 692q0 -144 58.5 -277.5t156.5 -231t234 -156t284 -58.5q197 0 366 98.5t268 265.5t99 359t-99 359t-268 265.5t-366 98.5q-148 0 -284 -58.5t-234 -156t-156.5 -231t-58.5 -277.5zM338 692q0 189 63.5 348t175 251.5t246.5 92.5q136 0 248.5 -92.5t177 -251.5 t64.5 -348q0 -188 -64.5 -346.5t-177.5 -251t-248 -92.5q-134 0 -246 92.5t-175.5 251t-63.5 346.5zM565 1735q0 -37 24.5 -61.5t61.5 -24.5t62.5 24.5t25.5 61.5t-25.5 62.5t-62.5 25.5t-61.5 -25.5t-24.5 -62.5zM909 1735q0 -37 24.5 -61.5t61.5 -24.5t62.5 24.5 t25.5 61.5t-25.5 62.5t-62.5 25.5t-61.5 -25.5t-24.5 -62.5z" />
<glyph unicode="&#xd7;" horiz-adv-x="974" d="M154 168l49 -49l280 280l281 -280l49 49l-281 281l281 280l-47 49l-283 -280l-282 280l-47 -49l280 -280z" />
<glyph unicode="&#xd8;" horiz-adv-x="1642" d="M88 692q0 -144 58.5 -277.5t156.5 -231t234 -156t284 -58.5q197 0 366 98.5t268 265.5t99 359t-99 359t-268 265.5t-366 98.5q-148 0 -284 -58.5t-234 -156t-156.5 -231t-58.5 -277.5zM283 -51l53 -43l1024 1519l-57 43zM336 692q0 189 63.5 348t175 251.5t246.5 92.5 q136 0 248.5 -92.5t177 -251.5t64.5 -348q0 -188 -64.5 -346.5t-177.5 -251t-248 -92.5q-134 0 -246 92.5t-175.5 251t-63.5 346.5z" />
<glyph unicode="&#xd9;" horiz-adv-x="1619" d="M72 1358h24q201 0 201 -234v-757q0 -116 33 -194t105 -124t174.5 -65t252.5 -19q257 0 378.5 108.5t121.5 342.5v493q0 178 18.5 275t57.5 135.5t110 38.5h17v26h-453v-26h16q71 0 108.5 -39.5t53.5 -134t17 -275.5l2 -446q0 -106 -19.5 -184t-64 -137t-122.5 -89 t-190 -30q-411 0 -411 393v708q0 234 200 234h25v26h-655v-26zM606 1747q0 -43 49 -72l328 -192h76l-322 313q-27 27 -57 27q-32 0 -53 -22t-21 -54z" />
<glyph unicode="&#xda;" horiz-adv-x="1619" d="M72 1358h24q201 0 201 -234v-757q0 -116 33 -194t105 -124t174.5 -65t252.5 -19q257 0 378.5 108.5t121.5 342.5v493q0 178 18.5 275t57.5 135.5t110 38.5h17v26h-453v-26h16q71 0 108.5 -39.5t53.5 -134t17 -275.5l2 -446q0 -106 -19.5 -184t-64 -137t-122.5 -89 t-190 -30q-411 0 -411 393v708q0 234 200 234h25v26h-655v-26zM727 1483h76l327 192q50 30 50 72q0 32 -21 54t-53 22q-30 0 -57 -27z" />
<glyph unicode="&#xdb;" horiz-adv-x="1619" d="M72 1358h24q201 0 201 -234v-757q0 -116 33 -194t105 -124t174.5 -65t252.5 -19q257 0 378.5 108.5t121.5 342.5v493q0 178 18.5 275t57.5 135.5t110 38.5h17v26h-453v-26h16q71 0 108.5 -39.5t53.5 -134t17 -275.5l2 -446q0 -106 -19.5 -184t-64 -137t-122.5 -89 t-190 -30q-411 0 -411 393v708q0 234 200 234h25v26h-655v-26zM610 1483h82l199 188l199 -188h81l-233 334h-94z" />
<glyph unicode="&#xdc;" horiz-adv-x="1619" d="M72 1358h24q201 0 201 -234v-757q0 -116 33 -194t105 -124t174.5 -65t252.5 -19q257 0 378.5 108.5t121.5 342.5v493q0 178 18.5 275t57.5 135.5t110 38.5h17v26h-453v-26h16q71 0 108.5 -39.5t53.5 -134t17 -275.5l2 -446q0 -106 -19.5 -184t-64 -137t-122.5 -89 t-190 -30q-411 0 -411 393v708q0 234 200 234h25v26h-655v-26zM633 1735q0 -37 24.5 -61.5t61.5 -24.5t62.5 24.5t25.5 61.5t-25.5 62.5t-62.5 25.5t-61.5 -25.5t-24.5 -62.5zM977 1735q0 -37 24.5 -61.5t61.5 -24.5t62.5 24.5t25.5 61.5t-25.5 62.5t-62.5 25.5t-61.5 -25.5 t-24.5 -62.5z" />
<glyph unicode="&#xdd;" horiz-adv-x="1402" d="M-10 1358h24q40 0 77.5 -16.5t62.5 -37t54.5 -59.5t43.5 -61.5t39 -65.5l231 -391q46 -77 63 -130t17 -138v-187q0 -120 -60.5 -182.5t-154.5 -62.5h-22v-27h684v27h-23q-92 0 -153.5 62.5t-61.5 182.5v187q0 81 17 136t61 130l182 309q31 52 64.5 100.5t78.5 103 t93.5 87.5t89.5 33h16v26h-452v-26h16q129 0 129 -109q0 -84 -107 -266l-159 -276q-9 -16 -20 -33.5t-18 -27.5l-7 -9q-19 30 -35 59l-203 346q-28 47 -43 74.5t-32 71t-17 72.5q0 98 156 98h24v26h-655v-26zM475 1536h76l328 193q49 29 49 71q0 32 -21 54t-53 22 q-30 0 -57 -27z" />
<glyph unicode="&#xde;" horiz-adv-x="1284" d="M72 0h684v27h-23q-93 0 -154 63t-61 182v97q148 -9 170 -9q82 0 146.5 8t127.5 31t104.5 61.5t67 103.5t25.5 153q-3 163 -97 260.5t-278 97.5h-264q-1 87 14 145.5t44 87.5t62 39.5t79 10.5h24v26h-655v-26h25q198 0 198 -234v-852q0 -120 -61.5 -182.5t-155.5 -62.5 h-22v-27zM518 391v658q49 0 80.5 -1t73 -4.5t68 -9.5t58.5 -18t51.5 -28.5t40 -41.5t31.5 -56.5t18 -74t7 -94.5q0 -85 -21 -147t-54 -97t-83 -55.5t-97 -26.5t-109 -6q-10 0 -32 1t-32 1z" />
<glyph unicode="&#xdf;" horiz-adv-x="1024" d="M63 0h1h1h1h1h1h1h1h1h1h1h1h1h1h1h1h1h1h1h1h1h1h1h1h1h1h1h1h1h1h1h1h1h1h1h1h1h1h1h1h1h1h1h1h1h1h1h1h1h1h1h1h1h1h1h1h1h1h1h1h1h1h1h1h1h2h1h1h1h1h1h1h1h1h1h2h1h1h1h1h1h2h1h1h1h1h2h1h1h1h1h2h1h1h1h2h1h1h1h2h1h1h1h2h1h1h2h1h1h2h1h1h2h1h1h2h1h1h2h1h2h1h1h2 h1h2h1h1h2h1h2h1h1h2h1h2h1h2h1h2h1h2h1h2h1h2h1h2h1h2h1h2h1h2h1h2h1h2h2h1h2h1h2h1h2h2h1h2h1h2h2h1h2h1h2h2h1h2h2h1h2h2h1h2h2h1h2h2h1h2h2h1h2h2h2h1h2h2h1h2h2h2h1h2h2h2h2h1h2h2h2h1h2h2h2h2h2h1h2h2h2h2h2h1h2h2h2h2h2h2h2h1h2h2h2h2h2h2h2h2h2h2h2h2h2h2h2h2h2h10 v27q-44 0 -64 53.5t-20 191.5v852q0 71 15 123t34.5 77.5t47 40.5t44 18t33.5 3q215 0 215 -235q0 -158 -42 -226.5t-130 -68.5q-24 0 -49 12.5t-41 12.5q-57 0 -57 -45q0 -41 47 -41q19 0 45.5 13t42.5 13q46 -2 82 -10.5t74 -33.5t63 -65t41 -109.5t16 -162.5 q0 -181 -45.5 -304.5t-116.5 -123.5q-29 0 -46.5 14t-23.5 31t-19 31t-33 14q-23 0 -35.5 -12t-12.5 -31q0 -71 168 -71q57 0 110.5 25t101.5 76t77 142t29 209q0 91 -32.5 167.5t-85 125t-116 76t-129.5 29.5q100 9 177 97.5t77 215.5q0 111 -98 187.5t-254 76.5 q-75 0 -136 -26.5t-97.5 -69.5t-56 -93.5t-19.5 -101.5v-262h-121v-41h121v-549q0 -61 -2 -95.5t-9.5 -67.5t-23 -48.5t-41 -24.5t-64.5 -9v-27z" />
<glyph unicode="&#xe0;" horiz-adv-x="903" d="M66 195q0 -25 5.5 -50.5t22.5 -56t44 -53.5t75.5 -39t110.5 -16q94 0 148.5 26t86.5 76q21 -37 68.5 -67.5t124.5 -30.5q47 0 79.5 8.5t50 25t24.5 28.5t14 32l-17 8q-11 -20 -19.5 -30.5t-28 -19.5t-48.5 -9q-23 0 -39.5 9t-25.5 23t-14 39.5t-6 48.5t-1 60v436 q0 70 -25 118.5t-71.5 74t-101 36.5t-126.5 11q-60 0 -123.5 -16.5t-113 -53t-49.5 -84.5q0 -34 21 -57t54 -23q31 0 51 21.5t25 54.5q11 74 43 99.5t88 25.5q52 0 87 -14.5t53 -34t27.5 -57t11 -63.5t1.5 -75q0 -60 -52.5 -105.5t-125.5 -58.5q-329 -59 -329 -247z M137 1278q0 -43 49 -72l328 -192h76l-322 313q-27 27 -57 27q-32 0 -53 -22t-21 -54zM225 186q0 49 23 88.5t64.5 68.5t82.5 50t95 46.5t83 43.5v-186q0 -65 -8.5 -112.5t-29.5 -88.5t-62 -62.5t-102 -21.5q-39 0 -67 10.5t-43 26.5t-23.5 41t-10.5 46t-2 50z" />
<glyph unicode="&#xe1;" horiz-adv-x="903" d="M66 195q0 -25 5.5 -50.5t22.5 -56t44 -53.5t75.5 -39t110.5 -16q94 0 148.5 26t86.5 76q21 -37 68.5 -67.5t124.5 -30.5q47 0 79.5 8.5t50 25t24.5 28.5t14 32l-17 8q-11 -20 -19.5 -30.5t-28 -19.5t-48.5 -9q-23 0 -39.5 9t-25.5 23t-14 39.5t-6 48.5t-1 60v436 q0 70 -25 118.5t-71.5 74t-101 36.5t-126.5 11q-60 0 -123.5 -16.5t-113 -53t-49.5 -84.5q0 -34 21 -57t54 -23q31 0 51 21.5t25 54.5q11 74 43 99.5t88 25.5q52 0 87 -14.5t53 -34t27.5 -57t11 -63.5t1.5 -75q0 -60 -52.5 -105.5t-125.5 -58.5q-329 -59 -329 -247zM225 186 q0 49 23 88.5t64.5 68.5t82.5 50t95 46.5t83 43.5v-186q0 -65 -8.5 -112.5t-29.5 -88.5t-62 -62.5t-102 -21.5q-39 0 -67 10.5t-43 26.5t-23.5 41t-10.5 46t-2 50zM258 1014h76l328 192q49 29 49 72q0 32 -21 54t-53 22q-30 0 -57 -27z" />
<glyph unicode="&#xe2;" horiz-adv-x="903" d="M66 195q0 -25 5.5 -50.5t22.5 -56t44 -53.5t75.5 -39t110.5 -16q94 0 148.5 26t86.5 76q21 -37 68.5 -67.5t124.5 -30.5q47 0 79.5 8.5t50 25t24.5 28.5t14 32l-17 8q-11 -20 -19.5 -30.5t-28 -19.5t-48.5 -9q-23 0 -39.5 9t-25.5 23t-14 39.5t-6 48.5t-1 60v436 q0 70 -25 118.5t-71.5 74t-101 36.5t-126.5 11q-60 0 -123.5 -16.5t-113 -53t-49.5 -84.5q0 -34 21 -57t54 -23q31 0 51 21.5t25 54.5q11 74 43 99.5t88 25.5q52 0 87 -14.5t53 -34t27.5 -57t11 -63.5t1.5 -75q0 -60 -52.5 -105.5t-125.5 -58.5q-329 -59 -329 -247z M141 1014h82l199 188l199 -188h81l-233 334h-94zM225 186q0 49 23 88.5t64.5 68.5t82.5 50t95 46.5t83 43.5v-186q0 -65 -8.5 -112.5t-29.5 -88.5t-62 -62.5t-102 -21.5q-39 0 -67 10.5t-43 26.5t-23.5 41t-10.5 46t-2 50z" />
<glyph unicode="&#xe3;" horiz-adv-x="915" d="M80 195q0 -25 5.5 -50.5t22.5 -56t44 -53.5t75.5 -39t110.5 -16q94 0 148.5 26t86.5 76q21 -37 68.5 -67.5t124.5 -30.5q47 0 79.5 8.5t50 25t24.5 28.5t14 32l-16 8q-16 -30 -36 -44.5t-61 -14.5q-23 0 -39.5 9t-25.5 23t-14 39.5t-6 48.5t-1 60v436q0 70 -24.5 118.5 t-71 74t-101 36.5t-126.5 11q-60 0 -124 -16.5t-113.5 -53t-49.5 -84.5q0 -34 21.5 -57t54.5 -23q31 0 50.5 21.5t24.5 54.5q11 74 43.5 99.5t88.5 25.5q52 0 87 -14.5t53 -34t27.5 -57t11 -63.5t1.5 -75q0 -60 -52.5 -105.5t-125.5 -58.5q-330 -59 -330 -247zM152 1151h41 q1 3 3 8t10 17t18 21.5t27.5 17.5t37.5 8q55 0 148 -41t153 -41q69 0 120.5 54t51.5 120l-31 4q0 -31 -31.5 -53.5t-95.5 -22.5q-37 0 -131 40t-154 40q-59 0 -113 -48t-54 -124zM240 186q0 49 23 88.5t64.5 68.5t82.5 50t95 46.5t83 43.5v-186q0 -64 -8.5 -112t-29.5 -89 t-62.5 -62.5t-102.5 -21.5q-48 0 -79 14.5t-44.5 43t-17.5 54t-4 62.5z" />
<glyph unicode="&#xe4;" horiz-adv-x="903" d="M66 195q0 -25 5.5 -50.5t22.5 -56t44 -53.5t75.5 -39t110.5 -16q94 0 148.5 26t86.5 76q21 -37 68.5 -67.5t124.5 -30.5q47 0 79.5 8.5t50 25t24.5 28.5t14 32l-17 8q-11 -20 -19.5 -30.5t-28 -19.5t-48.5 -9q-23 0 -39.5 9t-25.5 23t-14 39.5t-6 48.5t-1 60v436 q0 70 -25 118.5t-71.5 74t-101 36.5t-126.5 11q-60 0 -123.5 -16.5t-113 -53t-49.5 -84.5q0 -34 21 -57t54 -23q31 0 51 21.5t25 54.5q11 74 43 99.5t88 25.5q52 0 87 -14.5t53 -34t27.5 -57t11 -63.5t1.5 -75q0 -60 -52.5 -105.5t-125.5 -58.5q-329 -59 -329 -247z M164 1266q0 -37 24.5 -61.5t61.5 -24.5t62.5 24.5t25.5 61.5t-25.5 62.5t-62.5 25.5t-61.5 -25.5t-24.5 -62.5zM225 186q0 49 23 88.5t64.5 68.5t82.5 50t95 46.5t83 43.5v-186q0 -65 -8.5 -112.5t-29.5 -88.5t-62 -62.5t-102 -21.5q-39 0 -67 10.5t-43 26.5t-23.5 41 t-10.5 46t-2 50zM508 1266q0 -37 24.5 -61.5t61.5 -24.5t62.5 24.5t25.5 61.5t-25.5 62.5t-62.5 25.5t-61.5 -25.5t-24.5 -62.5z" />
<glyph unicode="&#xe5;" horiz-adv-x="915" d="M80 195q0 -25 5.5 -50.5t22.5 -56t44 -53.5t75.5 -39t110.5 -16q94 0 148.5 26t86.5 76q21 -37 68.5 -67.5t124.5 -30.5q47 0 79.5 8.5t50 25t24.5 28.5t14 32l-16 8q-16 -30 -36 -44.5t-61 -14.5q-23 0 -39.5 9t-25.5 23t-14 39.5t-6 48.5t-1 60v436q0 70 -24.5 118.5 t-71 74t-101 36.5t-126.5 11q-60 0 -124 -16.5t-113.5 -53t-49.5 -84.5q0 -34 21.5 -57t54.5 -23q31 0 50.5 21.5t24.5 54.5q11 74 43.5 99.5t88.5 25.5q52 0 87 -14.5t53 -34t27.5 -57t11 -63.5t1.5 -75q0 -60 -52.5 -105.5t-125.5 -58.5q-330 -59 -330 -247zM240 186 q0 49 23 88.5t64.5 68.5t82.5 50t95 46.5t83 43.5v-186q0 -64 -8.5 -112t-29.5 -89t-62.5 -62.5t-102.5 -21.5q-48 0 -79 14.5t-44.5 43t-17.5 54t-4 62.5zM287 1194q0 -63 43.5 -107.5t105.5 -44.5q63 0 107.5 44.5t44.5 107.5q0 62 -44.5 105.5t-107.5 43.5 q-62 0 -105.5 -43.5t-43.5 -105.5zM342 1194q0 40 28 67t68 27t67 -26.5t27 -67.5q0 -39 -27.5 -67.5t-66.5 -28.5q-41 0 -68.5 28.5t-27.5 67.5z" />
<glyph unicode="&#xe6;" horiz-adv-x="1359" d="M59 213q0 -29 5.5 -57.5t22.5 -61.5t44 -57t75 -40.5t111 -16.5q106 0 174 38.5t105 126.5q56 -69 150 -121.5t212 -52.5q146 0 238 66t115 168h-23q-34 -81 -106 -129.5t-176 -48.5q-90 0 -152.5 28.5t-96.5 84.5t-48.5 125t-14.5 163q0 76 4 123h605q0 73 -23 132.5 t-60 97t-86 62.5t-98 35.5t-98 10.5q-93 0 -154 -23t-106 -73q-76 90 -287 90q-60 0 -124 -16.5t-113.5 -53t-49.5 -84.5q0 -34 21.5 -57t54.5 -23q32 0 53.5 22t26.5 54q11 74 41.5 99.5t85.5 25.5q35 0 61.5 -6.5t44.5 -16t30.5 -28t19 -35t10 -44.5t4 -48.5t0.5 -55.5 q0 -62 -49 -108t-119 -55q-172 -22 -251 -78.5t-79 -161.5zM219 186q0 53 20 91t57.5 64.5t77.5 47t92.5 52t90.5 65.5v-209q0 -53 -3.5 -91t-15.5 -77t-32.5 -63t-56 -39t-84.5 -15q-39 0 -67 10.5t-43 26.5t-23.5 41t-10.5 46t-2 50zM702 584q8 59 22.5 104.5t41 85t70 61 t102.5 21.5q115 0 162 -69t47 -203h-445z" />
<glyph unicode="&#xe7;" horiz-adv-x="854" d="M72 430q0 -204 114.5 -331.5t321.5 -127.5l-129 -125v-22q65 4 99 -24.5t34 -78.5q0 -58 -43.5 -95.5t-106.5 -37.5l5 -26q113 0 196.5 61.5t83.5 151.5q0 60 -47.5 92.5t-126.5 23.5q4 3 17 13t18 14t17.5 13t20 13.5t20.5 12t23.5 11.5t24 8.5t27.5 7.5q93 21 143 80 t60 141h-23q-11 -42 -26 -70.5t-43 -55t-74 -39.5t-111 -13q-331 0 -331 403q0 183 72 304.5t194 121.5q58 0 87 -12t42 -37.5t24 -81.5q6 -31 29.5 -50.5t56.5 -19.5q34 0 54 21t20 55q0 41 -32 73.5t-81.5 50t-100.5 26t-99 8.5q-125 0 -224 -63t-152.5 -167.5 t-53.5 -228.5z" />
<glyph unicode="&#xe8;" horiz-adv-x="915" d="M61 430q0 -208 116 -333.5t333 -125.5q156 0 243 64.5t111 169.5h-22q-18 -42 -38.5 -71.5t-53 -55t-80.5 -38.5t-113 -13q-332 0 -332 401q0 84 6 154h621q0 80 -37 142t-94.5 96.5t-118.5 51.5t-119 17q-187 0 -304.5 -134t-117.5 -325zM195 1278q0 -43 49 -72 l327 -192h76l-321 313q-27 27 -58 27q-32 0 -52.5 -21.5t-20.5 -54.5zM236 614q16 117 73 179.5t174 62.5q110 0 161.5 -59t51.5 -183h-460z" />
<glyph unicode="&#xe9;" horiz-adv-x="915" d="M61 430q0 -208 116 -333.5t333 -125.5q156 0 243 64.5t111 169.5h-22q-18 -42 -38.5 -71.5t-53 -55t-80.5 -38.5t-113 -13q-332 0 -332 401q0 84 6 154h621q0 80 -37 142t-94.5 96.5t-118.5 51.5t-119 17q-187 0 -304.5 -134t-117.5 -325zM236 614q16 117 73 179.5 t174 62.5q110 0 161.5 -59t51.5 -183h-460zM315 1014h76l328 192q49 29 49 72q0 32 -21 54t-53 22q-30 0 -57 -27z" />
<glyph unicode="&#xea;" horiz-adv-x="915" d="M61 430q0 -208 116 -333.5t333 -125.5q156 0 243 64.5t111 169.5h-22q-18 -42 -38.5 -71.5t-53 -55t-80.5 -38.5t-113 -13q-332 0 -332 401q0 84 6 154h621q0 80 -37 142t-94.5 96.5t-118.5 51.5t-119 17q-187 0 -304.5 -134t-117.5 -325zM199 1014h82l198 188l199 -188 h82l-234 334h-94zM236 614q16 117 73 179.5t174 62.5q110 0 161.5 -59t51.5 -183h-460z" />
<glyph unicode="&#xeb;" horiz-adv-x="915" d="M61 430q0 -208 116 -333.5t333 -125.5q156 0 243 64.5t111 169.5h-22q-18 -42 -38.5 -71.5t-53 -55t-80.5 -38.5t-113 -13q-332 0 -332 401q0 84 6 154h621q0 80 -37 142t-94.5 96.5t-118.5 51.5t-119 17q-187 0 -304.5 -134t-117.5 -325zM221 1266q0 -37 24.5 -61.5 t61.5 -24.5t62.5 24.5t25.5 61.5t-25.5 62.5t-62.5 25.5t-61.5 -25.5t-24.5 -62.5zM236 614q16 117 73 179.5t174 62.5q110 0 161.5 -59t51.5 -183h-460zM565 1266q0 -37 24.5 -61.5t61.5 -24.5t62.5 24.5t25.5 61.5t-25.5 62.5t-62.5 25.5t-61.5 -25.5t-24.5 -62.5z" />
<glyph unicode="&#xec;" horiz-adv-x="520" d="M-37 1278q0 -43 49 -72l328 -192h76l-322 313q-27 27 -57 27q-32 0 -53 -22t-21 -54zM53 836q54 -2 81 -8t43.5 -30t20 -57.5t3.5 -103.5v-365q0 -40 -0.5 -62.5t-2.5 -51t-5.5 -43.5t-10 -32.5t-16 -26t-24 -16.5t-33 -10.5t-43.5 -2.5v-27h403v27q-25 0 -43.5 2 t-32.5 10t-23.5 15t-16 25t-10 31.5t-5 43.5t-2 52.5t-0.5 65.5v623h-21q-211 -35 -262 -39v-20z" />
<glyph unicode="&#xed;" horiz-adv-x="520" d="M27 1014h75l328 192q49 29 49 72q0 33 -20.5 54.5t-52.5 21.5q-31 0 -58 -27zM53 836q54 -2 81 -8t43.5 -30t20 -57.5t3.5 -103.5v-365q0 -40 -0.5 -62.5t-2.5 -51t-5.5 -43.5t-10 -32.5t-16 -26t-24 -16.5t-33 -10.5t-43.5 -2.5v-27h403v27q-25 0 -43.5 2t-32.5 10 t-23.5 15t-16 25t-10 31.5t-5 43.5t-2 52.5t-0.5 65.5v623h-21q-211 -35 -262 -39v-20z" />
<glyph unicode="&#xee;" horiz-adv-x="520" d="M-33 1014h82l199 188l198 -188h82l-233 334h-94zM53 836q54 -2 81 -8t43.5 -30t20 -57.5t3.5 -103.5v-365q0 -40 -0.5 -62.5t-2.5 -51t-5.5 -43.5t-10 -32.5t-16 -26t-24 -16.5t-33 -10.5t-43.5 -2.5v-27h403v27q-25 0 -43.5 2t-32.5 10t-23.5 15t-16 25t-10 31.5 t-5 43.5t-2 52.5t-0.5 65.5v623h-21q-211 -35 -262 -39v-20z" />
<glyph unicode="&#xef;" horiz-adv-x="520" d="M-16 1266q0 -37 24.5 -61.5t61.5 -24.5t62.5 24.5t25.5 61.5t-25.5 62.5t-62.5 25.5t-61.5 -25.5t-24.5 -62.5zM53 836q54 -2 81 -8t43.5 -30t20 -57.5t3.5 -103.5v-365q0 -40 -0.5 -62.5t-2.5 -51t-5.5 -43.5t-10 -32.5t-16 -26t-24 -16.5t-33 -10.5t-43.5 -2.5v-27h403 v27q-25 0 -43.5 2t-32.5 10t-23.5 15t-16 25t-10 31.5t-5 43.5t-2 52.5t-0.5 65.5v623h-21q-211 -35 -262 -39v-20zM328 1266q0 -37 24.5 -61.5t61.5 -24.5t62.5 24.5t25.5 61.5t-25.5 62.5t-62.5 25.5t-61.5 -25.5t-24.5 -62.5z" />
<glyph unicode="&#xf0;" horiz-adv-x="1034" d="M72 430q0 -122 62.5 -228t169.5 -168.5t233 -62.5q178 0 297.5 137.5t119.5 360.5q0 113 -18.5 220.5t-56.5 208.5t-99.5 184.5t-141.5 146.5t-190 98t-239 35q102 -7 192.5 -52.5t150.5 -108t103.5 -134.5t63.5 -131.5t20 -99.5q-95 53 -202 53q-126 0 -233 -62.5 t-169.5 -168.5t-62.5 -228zM236 430q0 177 87.5 301.5t213.5 124.5q123 0 191.5 -120.5t68.5 -305.5q0 -174 -78.5 -300t-181.5 -126q-126 0 -213.5 124.5t-87.5 301.5zM358 1032l33 -47l508 297l-25 53z" />
<glyph unicode="&#xf1;" horiz-adv-x="1136" d="M72 836q38 -2 60.5 -4.5t41 -12.5t26.5 -20.5t13.5 -38t6.5 -53.5t1 -78v-357q0 -51 -1 -81t-6 -62t-13.5 -48t-24 -30t-38.5 -19t-56 -5v-27h410v27q-33 0 -55.5 4t-38 18t-23.5 28.5t-12.5 47.5t-5.5 62t-1 85v254q0 85 6.5 131.5t28.5 79.5q33 49 89 84t122 35 q99 0 151 -54t52 -179v-351q0 -51 -1 -81t-6 -62t-13.5 -48t-24 -30t-38.5 -19t-56 -5v-27h409v27q-33 0 -55.5 4t-38 18t-23.5 28.5t-12 47.5t-5 62t-1 85v351q0 69 -14 118.5t-36.5 78t-60 44.5t-73.5 20.5t-88 4.5q-119 0 -191.5 -35.5t-120.5 -99.5l-10 135l-14 6 q-133 -25 -260 -39v-20zM262 1151h41q1 3 3 8t10 17t18 21.5t27.5 17.5t37.5 8q55 0 148 -41t153 -41q69 0 120.5 54t51.5 120l-30 4q0 -31 -31.5 -53.5t-95.5 -22.5q-37 0 -131 40t-154 40q-59 0 -113.5 -48t-54.5 -124z" />
<glyph unicode="&#xf2;" horiz-adv-x="1073" d="M72 430q0 -122 62.5 -228t169.5 -168.5t233 -62.5q125 0 232 62.5t169.5 168.5t62.5 228t-62.5 228t-169.5 168.5t-232 62.5q-126 0 -233 -62.5t-169.5 -168.5t-62.5 -228zM236 430q0 177 87.5 301.5t213.5 124.5q127 0 214 -124t87 -302t-87 -302t-214 -124 q-126 0 -213.5 124.5t-87.5 301.5zM252 1278q0 -43 49 -72l328 -192h76l-322 313q-27 27 -57 27q-32 0 -53 -22t-21 -54z" />
<glyph unicode="&#xf3;" horiz-adv-x="1073" d="M72 430q0 -122 62.5 -228t169.5 -168.5t233 -62.5q125 0 232 62.5t169.5 168.5t62.5 228t-62.5 228t-169.5 168.5t-232 62.5q-126 0 -233 -62.5t-169.5 -168.5t-62.5 -228zM236 430q0 177 87.5 301.5t213.5 124.5q127 0 214 -124t87 -302t-87 -302t-214 -124 q-126 0 -213.5 124.5t-87.5 301.5zM373 1014h76l327 192q49 29 49 72q0 33 -20.5 54.5t-52.5 21.5q-31 0 -58 -27z" />
<glyph unicode="&#xf4;" horiz-adv-x="1073" d="M72 430q0 -122 62.5 -228t169.5 -168.5t233 -62.5q125 0 232 62.5t169.5 168.5t62.5 228t-62.5 228t-169.5 168.5t-232 62.5q-126 0 -233 -62.5t-169.5 -168.5t-62.5 -228zM236 430q0 177 87.5 301.5t213.5 124.5q127 0 214 -124t87 -302t-87 -302t-214 -124 q-126 0 -213.5 124.5t-87.5 301.5zM256 1014h82l199 188l198 -188h82l-233 334h-95z" />
<glyph unicode="&#xf5;" horiz-adv-x="1073" d="M72 430q0 -122 62.5 -228t169.5 -168.5t233 -62.5q125 0 232 62.5t169.5 168.5t62.5 228t-62.5 228t-169.5 168.5t-232 62.5q-126 0 -233 -62.5t-169.5 -168.5t-62.5 -228zM231 1151h41q1 3 3 8t10.5 17t18.5 21.5t27.5 17.5t37.5 8q54 0 147.5 -41t153.5 -41 q69 0 120.5 54t51.5 120l-31 4q0 -31 -31.5 -53.5t-95.5 -22.5q-37 0 -131 40t-154 40q-59 0 -113.5 -48t-54.5 -124zM236 430q0 177 87.5 301.5t213.5 124.5q127 0 214 -124t87 -302t-87 -302t-214 -124q-126 0 -213.5 124.5t-87.5 301.5z" />
<glyph unicode="&#xf6;" horiz-adv-x="1073" d="M72 430q0 -122 62.5 -228t169.5 -168.5t233 -62.5q125 0 232 62.5t169.5 168.5t62.5 228t-62.5 228t-169.5 168.5t-232 62.5q-126 0 -233 -62.5t-169.5 -168.5t-62.5 -228zM236 430q0 177 87.5 301.5t213.5 124.5q127 0 214 -124t87 -302t-87 -302t-214 -124 q-126 0 -213.5 124.5t-87.5 301.5zM279 1266q0 -37 24.5 -61.5t61.5 -24.5t62.5 24.5t25.5 61.5t-25.5 62.5t-62.5 25.5t-61.5 -25.5t-24.5 -62.5zM623 1266q0 -37 24.5 -61.5t61.5 -24.5t62.5 24.5t25.5 61.5t-25.5 62.5t-62.5 25.5t-61.5 -25.5t-24.5 -62.5z" />
<glyph unicode="&#xf7;" horiz-adv-x="1089" d="M100 543h791v84h-791v-84zM463 322q0 37 23.5 59t58.5 22q36 0 60 -23t24 -58q0 -39 -22.5 -61.5t-61.5 -22.5q-34 0 -58 25t-24 59zM463 973q0 37 23.5 60.5t58.5 23.5q36 0 60 -24t24 -60q0 -38 -23 -60t-61 -22q-34 0 -58 24t-24 58z" />
<glyph unicode="&#xf8;" horiz-adv-x="1073" d="M72 430q0 -122 62.5 -228t169.5 -168.5t233 -62.5q125 0 232 62.5t169.5 168.5t62.5 228t-62.5 228t-169.5 168.5t-232 62.5q-126 0 -233 -62.5t-169.5 -168.5t-62.5 -228zM184 -47l39 -29l668 1000l-43 28zM236 430q0 177 87.5 301.5t213.5 124.5q127 0 214 -124 t87 -302t-87 -302t-214 -124q-126 0 -213.5 124.5t-87.5 301.5z" />
<glyph unicode="&#xf9;" horiz-adv-x="1128" d="M61 836q41 0 67 -8t42.5 -23t24 -47.5t10 -68t2.5 -99.5v-346q0 -73 18 -125t44.5 -80t70.5 -44t82 -20t92 -4q198 0 277 115l8 -106l14 -7q133 11 260 25v20q-39 2 -61 4t-40.5 12.5t-26 20t-13 37.5t-6 53t-0.5 78v639h-269v-26q25 0 43.5 -2.5t33 -10t23.5 -15t16 -25 t10.5 -31.5t5 -43.5t2 -52.5t0.5 -66v-273q0 -65 -1 -96t-9 -67.5t-25 -57.5q-71 -92 -224 -92q-85 0 -137.5 58.5t-52.5 181.5v618h-281v-26zM287 1278q0 -43 49 -72l328 -192h75l-321 313q-27 27 -58 27q-32 0 -52.5 -21.5t-20.5 -54.5z" />
<glyph unicode="&#xfa;" horiz-adv-x="1128" d="M61 836q41 0 67 -8t42.5 -23t24 -47.5t10 -68t2.5 -99.5v-346q0 -73 18 -125t44.5 -80t70.5 -44t82 -20t92 -4q198 0 277 115l8 -106l14 -7q133 11 260 25v20q-39 2 -61 4t-40.5 12.5t-26 20t-13 37.5t-6 53t-0.5 78v639h-269v-26q25 0 43.5 -2.5t33 -10t23.5 -15t16 -25 t10.5 -31.5t5 -43.5t2 -52.5t0.5 -66v-273q0 -65 -1 -96t-9 -67.5t-25 -57.5q-71 -92 -224 -92q-85 0 -137.5 58.5t-52.5 181.5v618h-281v-26zM408 1014h75l328 192q49 29 49 72q0 32 -21 54t-53 22q-30 0 -57 -27z" />
<glyph unicode="&#xfb;" horiz-adv-x="1128" d="M61 836q41 0 67 -8t42.5 -23t24 -47.5t10 -68t2.5 -99.5v-346q0 -73 18 -125t44.5 -80t70.5 -44t82 -20t92 -4q198 0 277 115l8 -106l14 -7q133 11 260 25v20q-39 2 -61 4t-40.5 12.5t-26 20t-13 37.5t-6 53t-0.5 78v639h-269v-26q25 0 43.5 -2.5t33 -10t23.5 -15t16 -25 t10.5 -31.5t5 -43.5t2 -52.5t0.5 -66v-273q0 -65 -1 -96t-9 -67.5t-25 -57.5q-71 -92 -224 -92q-85 0 -137.5 58.5t-52.5 181.5v618h-281v-26zM291 1014h82l198 188l199 -188h82l-234 334h-94z" />
<glyph unicode="&#xfc;" horiz-adv-x="1128" d="M61 836q41 0 67 -8t42.5 -23t24 -47.5t10 -68t2.5 -99.5v-346q0 -73 18 -125t44.5 -80t70.5 -44t82 -20t92 -4q198 0 277 115l8 -106l14 -7q133 11 260 25v20q-39 2 -61 4t-40.5 12.5t-26 20t-13 37.5t-6 53t-0.5 78v639h-269v-26q25 0 43.5 -2.5t33 -10t23.5 -15t16 -25 t10.5 -31.5t5 -43.5t2 -52.5t0.5 -66v-273q0 -65 -1 -96t-9 -67.5t-25 -57.5q-71 -92 -224 -92q-85 0 -137.5 58.5t-52.5 181.5v618h-281v-26zM313 1266q0 -37 24.5 -61.5t61.5 -24.5t62.5 24.5t25.5 61.5t-25.5 62.5t-62.5 25.5t-61.5 -25.5t-24.5 -62.5zM657 1266 q0 -37 24.5 -61.5t61.5 -24.5t62.5 24.5t25.5 61.5t-25.5 62.5t-62.5 25.5t-61.5 -25.5t-24.5 -62.5z" />
<glyph unicode="&#xfd;" horiz-adv-x="976" d="M0 846h16q34 0 59 -10t43 -33.5t27.5 -41t24.5 -54.5l293 -705q0 -43 -8 -79.5t-17 -58.5t-28 -61q-17 -36 -56 -67t-78 -31q-14 0 -37 8t-44 8q-28 0 -50 -13t-22 -44q0 -28 25.5 -51t68.5 -23q134 0 229 228l310 741q13 32 22.5 53t28 59.5t35.5 65t38 54t43 41.5 t44 14h10v16h-313v-16h10q45 0 74.5 -31t29.5 -82q0 -39 -53 -174l-168 -407l-174 411q-57 143 -57 191q0 38 34.5 65t81.5 27h15v16h-457v-16zM387 1014h76l328 192q49 29 49 72q0 32 -21 54t-53 22q-30 0 -57 -27z" />
<glyph unicode="&#xfe;" horiz-adv-x="1062" d="M27 -391v-27h428v27q-33 0 -54.5 7t-37 29t-24 48t-13.5 80t-6 109t-1 149q40 -26 103.5 -43t130.5 -17q107 0 192 36.5t138 100t80.5 145.5t27.5 177q0 123 -56 228t-157 168t-225 63q-59 0 -117 -20.5t-84.5 -38t-36.5 -27.5v612h-18q-215 -35 -266 -39v-20 q38 -1 61.5 -4t41.5 -15t26 -24t13 -42.5t6 -58t1 -82.5v-1224q0 -45 -1 -73.5t-4 -63.5t-9.5 -56t-17.5 -43t-27 -34t-39.5 -19.5t-54.5 -7.5zM311 430q0 77 2.5 128.5t10 104t22 84.5t38 59t59 38.5t83.5 11.5q147 0 224 -119.5t77 -306.5q0 -83 -17.5 -157t-52 -135.5 t-94 -97.5t-137.5 -36q-35 0 -62.5 6t-49 15.5t-37.5 28.5t-27 36.5t-18.5 49t-11.5 57t-6 69t-2.5 76.5t-0.5 88z" />
<glyph unicode="&#xff;" horiz-adv-x="976" d="M0 846h16q34 0 59 -10t43 -33.5t27.5 -41t24.5 -54.5l293 -705q0 -43 -8 -79.5t-17 -58.5t-28 -61q-17 -36 -56 -67t-78 -31q-14 0 -37 8t-44 8q-28 0 -50 -13t-22 -44q0 -28 25.5 -51t68.5 -23q134 0 229 228l310 741q13 32 22.5 53t28 59.5t35.5 65t38 54t43 41.5 t44 14h10v16h-313v-16h10q45 0 74.5 -31t29.5 -82q0 -39 -53 -174l-168 -407l-174 411q-57 143 -57 191q0 38 34.5 65t81.5 27h15v16h-457v-16zM293 1266q0 -37 24.5 -61.5t61.5 -24.5t62.5 24.5t25.5 61.5t-25.5 62.5t-62.5 25.5t-61.5 -25.5t-24.5 -62.5zM637 1266 q0 -37 24.5 -61.5t61.5 -24.5t62.5 24.5t25.5 61.5t-25.5 62.5t-62.5 25.5t-61.5 -25.5t-24.5 -62.5z" />
<glyph unicode="&#x152;" horiz-adv-x="2244" d="M49 715q0 -169 55.5 -308t149.5 -229t215 -139t256 -49q104 0 240 5.5t276 8.5h907l27 367h-21q-9 -67 -25.5 -117.5t-48.5 -95t-79 -73t-118 -44.5t-165 -16q-157 0 -239 71.5t-82 188.5v420h184q93 0 145 -62.5t52 -163.5v-20h18v516h-18v-23q0 -217 -162 -217l-219 -6 v623h340q150 0 225.5 -67.5t105.5 -197.5h19l-25 297h-841q-107 0 -252 4.5t-256 4.5q-104 0 -201 -27t-181.5 -83.5t-147 -136t-98.5 -190.5t-36 -241zM283 715q0 180 59 328.5t163.5 233.5t231.5 85q80 0 150 -18.5t136 -65t113 -118t75 -184t28 -255.5q0 -146 -25.5 -264 t-70.5 -197.5t-107 -133t-133.5 -77.5t-152.5 -24q-130 0 -237.5 92.5t-168.5 251t-61 346.5z" />
<glyph unicode="&#x153;" horiz-adv-x="1630" d="M51 430q0 -122 62.5 -228t169.5 -168.5t233 -62.5q102 0 198 48.5t154 125.5q40 -68 136.5 -121t220.5 -53q146 0 237.5 66t114.5 168h-23q-34 -81 -106 -129.5t-176 -48.5q-73 0 -128 19.5t-90 53.5t-57 85.5t-30.5 110t-8.5 132.5q0 41 7 123h604q0 73 -23 132.5 t-60 97t-86 62.5t-98 35.5t-98 10.5q-130 0 -208 -42.5t-130 -119.5q-64 77 -154.5 119.5t-195.5 42.5q-126 0 -233 -62.5t-169.5 -168.5t-62.5 -228zM211 430q0 177 89.5 301.5t215.5 124.5q127 0 214 -124t87 -302t-87 -302t-214 -124q-126 0 -215.5 124.5t-89.5 301.5z M969 584q8 60 22.5 105t40.5 84.5t69.5 61t102.5 21.5q115 0 162 -69t47 -203h-444z" />
<glyph unicode="&#x178;" horiz-adv-x="1331" d="M-37 1358h25q40 0 77 -16.5t62 -37t55 -59.5t43.5 -61t38.5 -66l232 -391q46 -77 62.5 -130t16.5 -138v-187q0 -120 -60.5 -182.5t-154.5 -62.5h-22v-27h684v27h-23q-92 0 -153.5 62.5t-61.5 182.5v187q0 81 17 136t61 130l182 309q31 52 64.5 100.5t78.5 103t93.5 87.5 t89.5 33h16v26h-452v-26h16q129 0 129 -109q0 -86 -106 -266l-160 -276q-9 -16 -20 -33.5t-18 -27.5l-7 -9q-19 30 -35 59l-203 346q-28 47 -43 74.5t-32 71t-17 72.5q0 98 156 98h24v26h-655v-26zM428 1788q0 -37 24.5 -61.5t61.5 -24.5t62.5 24.5t25.5 61.5t-25.5 62.5 t-62.5 25.5t-61.5 -25.5t-24.5 -62.5zM772 1788q0 -37 24.5 -61.5t61.5 -24.5t62.5 24.5t25.5 61.5t-25.5 62.5t-62.5 25.5t-61.5 -25.5t-24.5 -62.5z" />
<glyph unicode="&#x2c6;" horiz-adv-x="706" d="M72 1014h82l198 188l199 -188h82l-234 334h-94z" />
<glyph unicode="&#x2dc;" horiz-adv-x="698" d="M37 1151h41q1 3 3 8t10 17t18 21.5t27.5 17.5t37.5 8q55 0 148 -41t153 -41q69 0 120.5 54t51.5 120l-31 4q0 -31 -31.5 -53.5t-95.5 -22.5q-37 0 -130.5 40t-153.5 40q-59 0 -113.5 -48t-54.5 -124z" />
<glyph unicode="&#x2000;" horiz-adv-x="938" />
<glyph unicode="&#x2001;" horiz-adv-x="1876" />
<glyph unicode="&#x2002;" horiz-adv-x="938" />
<glyph unicode="&#x2003;" horiz-adv-x="1876" />
<glyph unicode="&#x2004;" horiz-adv-x="625" />
<glyph unicode="&#x2005;" horiz-adv-x="469" />
<glyph unicode="&#x2006;" horiz-adv-x="312" />
<glyph unicode="&#x2007;" horiz-adv-x="312" />
<glyph unicode="&#x2008;" horiz-adv-x="234" />
<glyph unicode="&#x2009;" horiz-adv-x="375" />
<glyph unicode="&#x200a;" horiz-adv-x="104" />
<glyph unicode="&#x2010;" horiz-adv-x="690" d="M98 395l447 -6l12 100l-459 -6v-88z" />
<glyph unicode="&#x2011;" horiz-adv-x="690" d="M98 395l447 -6l12 100l-459 -6v-88z" />
<glyph unicode="&#x2012;" horiz-adv-x="690" d="M98 395l447 -6l12 100l-459 -6v-88z" />
<glyph unicode="&#x2013;" horiz-adv-x="921" d="M0 397h922v86h-922v-86z" />
<glyph unicode="&#x2014;" horiz-adv-x="1843" d="M0 397h1843v86h-1843v-86z" />
<glyph unicode="&#x2018;" horiz-adv-x="460" d="M82 1085q0 -80 41 -122.5t102 -42.5q51 0 84 33.5t33 80.5q0 45 -32 73t-79 28q-52 0 -71 -29q0 94 59.5 172t132.5 119l-12 26q-101 -34 -179.5 -134.5t-78.5 -203.5z" />
<glyph unicode="&#x2019;" horiz-adv-x="460" d="M109 944l12 -26q102 34 180 134t78 203q0 81 -41 123.5t-102 42.5q-51 0 -84 -33.5t-33 -80.5q0 -45 31.5 -73t78.5 -28q53 0 72 29q0 -94 -59.5 -172t-132.5 -119z" />
<glyph unicode="&#x201c;" horiz-adv-x="833" d="M90 1085q0 -80 41 -122.5t102 -42.5q51 0 84 33.5t33 80.5q0 45 -31.5 73t-78.5 28q-53 0 -72 -29q0 94 59.5 172t132.5 119l-12 26q-101 -34 -179.5 -134.5t-78.5 -203.5zM414 1085q0 -80 41 -122.5t102 -42.5q51 0 84 33.5t33 80.5q0 45 -32 73t-79 28q-52 0 -71 -29 q0 94 59.5 172t132.5 119l-12 26q-101 -34 -179.5 -134.5t-78.5 -203.5z" />
<glyph unicode="&#x201d;" horiz-adv-x="784" d="M109 944l12 -26q102 34 180 134t78 203q0 81 -41 123.5t-102 42.5q-51 0 -84 -33.5t-33 -80.5q0 -45 31.5 -73t78.5 -28q53 0 72 29q0 -94 -59.5 -172t-132.5 -119zM432 944l12 -26q102 34 180 134t78 203q0 81 -41 123.5t-102 42.5q-51 0 -84 -33.5t-33 -80.5 q0 -45 32 -73t79 -28q53 0 72 29q0 -94 -59.5 -172t-133.5 -119z" />
<glyph unicode="&#x2022;" horiz-adv-x="600" d="M127 453q0 -75 52 -128t128 -53q75 0 127.5 53t52.5 128q0 77 -52.5 130.5t-127.5 53.5q-76 0 -128 -53.5t-52 -130.5z" />
<glyph unicode="&#x202f;" horiz-adv-x="375" />
<glyph unicode="&#x205f;" horiz-adv-x="469" />
<glyph unicode="&#x20ac;" horiz-adv-x="1439" d="M80 631h147l4 43h-151v-43zM84 780h154l6 43h-160v-43zM190 713q0 -351 170 -547.5t492 -196.5q63 0 127 13.5t128.5 46t114 80t80.5 121.5t31 165h-26q0 -156 -114 -261t-308 -105q-151 0 -255 85t-153 229.5t-49 338.5q0 192 52 352.5t149.5 257.5t222.5 97 q89 0 153.5 -20t118.5 -70t94 -134.5t72 -212.5h19l-11 430h-22q-4 -18 -19.5 -36.5t-35.5 -18.5q-17 0 -52 13.5t-75 30.5t-112 30.5t-155 13.5q-182 0 -329 -97.5t-227.5 -257.5t-80.5 -347zM397 674l2 -43h557v43h-559zM412 780h583v43h-579z" />
<glyph unicode="&#x25fc;" horiz-adv-x="860" d="M0 0v860h860v-860h-860z" />
<glyph unicode="&#xfb01;" horiz-adv-x="1095" d="M61 821h162v-549q0 -51 -1 -81t-6 -62t-13.5 -48t-24 -30t-38.5 -19t-56 -5v-27h410v27q-33 0 -55.5 4t-38 18t-23.5 28.5t-12.5 47.5t-5.5 62t-1 85v549h267q46 0 69.5 -5t40 -26t21 -56.5t4.5 -102.5v-359q0 -40 -0.5 -62.5t-2.5 -51t-5.5 -43.5t-10 -32.5t-16 -26 t-24 -16.5t-33 -10.5t-43.5 -2.5v-27h405v27q-33 0 -55.5 4t-38 18t-23.5 28.5t-12 47.5t-5 62t-1 85v623h-18q-101 -33 -185 -33h-334l2 262q0 64 16.5 115t41 81.5t57 50t61 27t56.5 7.5q58 0 88.5 -19t62.5 -86q37 -79 97 -79q30 0 46.5 24.5t13.5 56t-23 50.5 q-74 69 -285 69q-76 0 -137 -13t-99 -31.5t-65 -48.5t-40 -53.5t-19.5 -58t-7.5 -50.5t-1 -42v-262h-162v-41z" />
<glyph unicode="&#xfb02;" horiz-adv-x="1107" d="M61 821h162v-549q0 -51 -1 -81t-6 -62t-13.5 -48t-24 -30t-38.5 -19t-56 -5v-27h410v27q-33 0 -55.5 4t-38 18t-23.5 28.5t-12.5 47.5t-5.5 62t-1 85v549h250v41h-250l2 262q0 80 21 138t55 87.5t68 42.5t69 13q53 0 71 -15t52 -87q34 -75 80 -82v-949q0 -51 -1 -81 t-6 -62t-13.5 -48t-24 -30t-38.5 -19t-56 -5v-27h410v27q-33 0 -55.5 4t-38 18t-23.5 28.5t-12.5 47.5t-5.5 62t-1 85l2 1143h-20q-37 -34 -68 -63q-74 69 -252 69q-88 0 -154.5 -24t-102.5 -57.5t-58.5 -77.5t-28.5 -76.5t-6 -61.5v-262h-162v-41z" />
<glyph unicode="&#xfb03;" horiz-adv-x="1642" d="M61 821h162v-549q0 -51 -1 -81t-6 -62t-13.5 -48t-24 -30t-38.5 -19t-56 -5v-27h410v27q-33 0 -55.5 4t-38 18t-23.5 28.5t-12.5 47.5t-5.5 62t-1 85v549h412v-549q0 -51 -1 -81t-6 -62t-13.5 -48t-24 -30t-38.5 -19t-56 -5v-27h409v27q-33 0 -55.5 4t-38 18t-23.5 28.5 t-12 47.5t-5 62t-1 85v549h266q61 0 87 -12t37.5 -51t11.5 -127v-359q0 -53 -1 -81.5t-5 -61t-12.5 -48t-24 -30t-38 -19.5t-55.5 -5v-27h406v27q-33 0 -55.5 4t-38 18t-23.5 28.5t-12 47.5t-5 62t-1 85v623h-19q-101 -33 -184 -33h-334l2 262q0 64 16.5 115t41 81.5t57 50 t61 27t56.5 7.5q58 0 88.5 -19t62.5 -86q37 -79 96 -79q30 0 46.5 24.5t13.5 56t-23 50.5q-74 69 -284 69q-211 0 -303 -96q-9 28 -38 48.5t-68 30t-73.5 13.5t-66.5 4q-86 0 -154 -23.5t-106.5 -58t-64 -77.5t-34 -77t-8.5 -61v-262h-162v-41zM358 862v262q0 56 11 101 t28 73.5t40.5 50t44.5 32t45.5 16.5t37.5 7t25 1q17 0 27.5 -2t25 -10.5t29 -29t30.5 -54.5q2 -4 5.5 -12t5 -11.5t5.5 -11.5t6.5 -11t7 -9.5t7.5 -8t8.5 -7t10 -4.5t11.5 -1.5t13 0.5q-12 -43 -12 -109v-262h-412z" />
<glyph unicode="&#xfb04;" horiz-adv-x="1654" d="M61 821h162v-549q0 -51 -1 -81t-6 -62t-13.5 -48t-24 -30t-38.5 -19t-56 -5v-27h410v27q-33 0 -55.5 4t-38 18t-23.5 28.5t-12.5 47.5t-5.5 62t-1 85v549h412v-549q0 -51 -1 -81t-6 -62t-13.5 -48t-24 -30t-38.5 -19t-56 -5v-27h409v27q-33 0 -55.5 4t-38 18t-23.5 28.5 t-12 47.5t-5 62t-1 85v549h262v41h-262v262q0 80 21 138t55.5 87.5t69 42.5t69.5 13q53 0 71 -15t52 -87q34 -75 80 -82v-949q0 -51 -1 -81t-6 -62t-13.5 -48t-24 -30t-38.5 -19t-56 -5v-27h409v27q-33 0 -55.5 4t-38 18t-23.5 28.5t-12 47.5t-5 62t-1 85l2 1143h-20 q-37 -34 -68 -63q-74 69 -252 69q-196 0 -284 -98q-8 29 -37 49.5t-68.5 30.5t-74 14t-66.5 4q-86 0 -154 -23.5t-106.5 -58t-64 -77.5t-34 -77t-8.5 -61v-262h-162v-41zM358 862v262q0 56 11 101t28 73.5t40.5 50t44.5 32t45.5 16.5t37.5 7t25 1q17 0 27.5 -2t25 -10.5 t29 -29t30.5 -54.5q10 -23 14.5 -31.5t15.5 -24t24.5 -19t31.5 0.5q-18 -58 -18 -111v-262h-412z" />
</font>
</defs>
</svg>
